<svg id="visual" viewBox="0 0 900 600" width="900" height="600" xmlns="http://www.w3.org/2000/svg" xmlns:xlink="http://www.w3.org/1999/xlink" version="1.1"><g stroke-width="1" stroke-linejoin="bevel"><path d="M502 339L364 331L360 462Z" fill="#94844f" stroke="#94844f"></path><path d="M360 462L558 489L502 339Z" fill="#d8bd43" stroke="#d8bd43"></path><path d="M360 462L390 600L558 489Z" fill="#eacc3e" stroke="#eacc3e"></path><path d="M736 337L529 176L502 339Z" fill="#c7ae47" stroke="#c7ae47"></path><path d="M502 339L396 147L364 331Z" fill="#a5924d" stroke="#a5924d"></path><path d="M390 600L578 600L558 489Z" fill="#a5924d" stroke="#a5924d"></path><path d="M558 489L696 475L502 339Z" fill="#94844f" stroke="#94844f"></path><path d="M210 183L204 283L364 331Z" fill="#94844f" stroke="#94844f"></path><path d="M364 331L204 283L360 462Z" fill="#94844f" stroke="#94844f"></path><path d="M360 462L147 600L390 600Z" fill="#505050" stroke="#505050"></path><path d="M529 176L396 147L502 339Z" fill="#505050" stroke="#505050"></path><path d="M578 600L696 475L558 489Z" fill="#837750" stroke="#837750"></path><path d="M204 283L138 458L360 462Z" fill="#d8bd43" stroke="#d8bd43"></path><path d="M396 147L210 183L364 331Z" fill="#837750" stroke="#837750"></path><path d="M0 282L0 492L138 458Z" fill="#94844f" stroke="#94844f"></path><path d="M696 475L736 337L502 339Z" fill="#837750" stroke="#837750"></path><path d="M578 600L688 600L696 475Z" fill="#837750" stroke="#837750"></path><path d="M696 475L900 447L736 337Z" fill="#837750" stroke="#837750"></path><path d="M138 458L147 600L360 462Z" fill="#b6a04b" stroke="#b6a04b"></path><path d="M576 0L380 0L396 147Z" fill="#fbdb37" stroke="#fbdb37"></path><path d="M396 147L380 0L210 183Z" fill="#b6a04b" stroke="#b6a04b"></path><path d="M576 0L396 147L529 176Z" fill="#505050" stroke="#505050"></path><path d="M736 337L751 128L529 176Z" fill="#726950" stroke="#726950"></path><path d="M751 128L576 0L529 176Z" fill="#b6a04b" stroke="#b6a04b"></path><path d="M0 282L138 458L204 283Z" fill="#837750" stroke="#837750"></path><path d="M138 458L0 492L147 600Z" fill="#c7ae47" stroke="#c7ae47"></path><path d="M0 139L0 282L210 183Z" fill="#615d50" stroke="#615d50"></path><path d="M210 183L0 282L204 283Z" fill="#726950" stroke="#726950"></path><path d="M380 0L187 0L210 183Z" fill="#837750" stroke="#837750"></path><path d="M900 600L900 447L696 475Z" fill="#c7ae47" stroke="#c7ae47"></path><path d="M736 337L900 267L751 128Z" fill="#726950" stroke="#726950"></path><path d="M0 492L0 600L147 600Z" fill="#c7ae47" stroke="#c7ae47"></path><path d="M900 447L900 267L736 337Z" fill="#eacc3e" stroke="#eacc3e"></path><path d="M187 0L0 139L210 183Z" fill="#b6a04b" stroke="#b6a04b"></path><path d="M900 0L742 0L751 128Z" fill="#eacc3e" stroke="#eacc3e"></path><path d="M751 128L742 0L576 0Z" fill="#eacc3e" stroke="#eacc3e"></path><path d="M688 600L900 600L696 475Z" fill="#a5924d" stroke="#a5924d"></path><path d="M900 267L900 131L751 128Z" fill="#a5924d" stroke="#a5924d"></path><path d="M187 0L0 0L0 139Z" fill="#505050" stroke="#505050"></path><path d="M900 131L900 0L751 128Z" fill="#fbdb37" stroke="#fbdb37"></path></g></svg>