<svg id="Layer_1" data-name="Layer 1" xmlns="http://www.w3.org/2000/svg" viewBox="0 0 304 304"><defs><style>.cls-1{fill:#fbdb37;}</style></defs><path class="cls-1" d="M44.1,224a5,5,0,1,1,0,2H0v-2Zm160,48a5,5,0,1,1,0,2H82v-2Zm57.8-46a5,5,0,1,1,0-2H304v2Zm0,16a5,5,0,1,1,0-2H304v2Zm6.2-114a5,5,0,1,1,0,2H181.9a5,5,0,1,1,0-2ZM12.1,80a5,5,0,1,1,0,2H0V80Zm185.8,34a5,5,0,1,1,0-2h86.2a5,5,0,1,1,0,2ZM258,12.1a5,5,0,1,1-2,0V0h2Zm-64,208a5,5,0,1,1-2,0V165.9a5,5,0,1,1,2,0ZM242,21.9V80h62v2H240V21.9a5,5,0,1,1,2,0Zm16,16V64h46v2H256V37.9a5,5,0,1,1,2,0Zm-128,96V208h16v12.1a5,5,0,1,1-2,0V210H128V133.9a5,5,0,1,1,2,0ZM124.1,112a5,5,0,1,1,0,2H114v48H85.9a5,5,0,1,1,0-2H112V112Zm-6.2,130a5,5,0,1,1,0-2H176V165.9a5,5,0,1,1,2,0V242Zm-16-64a5,5,0,1,1,0-2H114v48h10.1a5,5,0,1,1,0,2H112V178ZM66,284.1a5,5,0,1,1-2,0V274H50v30H48V272H66ZM236.1,176a5,5,0,1,1,0,2H226v94h48v32h-2V274H224V176Zm25.8-30a5,5,0,1,1,0-2H274v44.1a5,5,0,1,1-2,0V146Zm-64,96a5,5,0,1,1,0-2H208V160h16V146H181.9a5,5,0,1,1,0-2H226v18H210v80ZM284.1,32a5,5,0,1,1,0,2H272V0h2V32ZM98,101.9V146H53.9a5,5,0,1,1,0-2H96V101.9a5,5,0,1,1,2,0ZM53.9,34a5,5,0,1,1,0-2H80V0h2V34ZM114,37.9V66H82v64H69.9a5,5,0,1,1,0-2H80V64h32V37.9a5,5,0,1,1,2,0ZM101.9,82a5,5,0,1,1,0-2H128V37.9a5,5,0,1,1,2,0V82Zm16-64a5,5,0,1,1,0-2H146V60.1a5,5,0,1,1-2,0V18ZM220.1,288a5,5,0,1,1,0,2H98v14H96V288ZM242,149.9V160h16v34H242v62h48v48h-2V258H240V192h16V162H240V149.9a5,5,0,1,1,2,0ZM53.9,18a5,5,0,1,1,0-2H64V2H48V0H66V18Zm112,32a5,5,0,1,1,0-2H192V0h50V2H194V50Zm-48-48a5,5,0,1,1-9.8-2h2.07a3,3,0,1,0,5.66,2,3,3,0,0,0,0-2H178V34H160V21.9a5,5,0,1,1,2,0V32h14V2Zm0,96a5,5,0,1,1,0-2H137l32-32h39V21.9a5,5,0,1,1,2,0V66H169.83l-32,32ZM146,188.1a5,5,0,1,1-2,0V111.59L175.59,80H224V21.9a5,5,0,1,1,2,0V82H176.41L146,112.41Zm16,32a5,5,0,1,1-2,0V120.59L184.59,96H300.1a5,5,0,0,1,3.9-3.9v2.07a3,3,0,0,0,0,5.66v2.07a5,5,0,0,1-3.9-3.9H185.41L162,121.41Zm-144-64a5,5,0,1,1-2,0v-3.51l48-48V48H96V0h2V50H66v55.41l-48,48ZM50,53.9V97.41l-48,48V208H28.1a5,5,0,1,1,0,2H0V144.59l48-48V53.9a5,5,0,1,1,2,0Zm-16,16V89.41l-34,34v-2.82l32-32V69.9a5,5,0,1,1,2,0ZM12.1,32a5,5,0,1,1,0,2H9.41L0,43.41V40.6L8.59,32ZM277.9,50a5,5,0,1,1,0-2h18.69L304,40.59v2.82L297.41,50Zm-16,160a5,5,0,1,1,0-2H288V136.59l16-16v2.82l-14,14V210Zm-208,32a5,5,0,1,1,0-2H64V217.41L40.59,194H21.9a5,5,0,1,1,0-2H41.41L66,216.59V242Zm150.2,14a5,5,0,1,1,0,2H96V201.4L56.6,162H37.9a5,5,0,1,1,0-2H57.4L98,200.6V256ZM53.9,258a5,5,0,1,1,0-2H80V209.41L48.59,178H21.9a5,5,0,1,1,0-2H49.41L82,208.59V258ZM34,39.8v1.61L9.41,66H0V64H8.59L32,40.59V0h2ZM2,300.1A5,5,0,0,1,5.9,304H3.83A3,3,0,0,0,0,302.17H0V256H18v48H16V258H2ZM34,241v63H32V242H0v-2H34ZM17,18H0V16H16V0h2V18Zm273-2h14v2H288V0h2ZM258,289v15h-2V290H242v14h-2V288h18ZM0,92.1A5,5,0,0,1,5.9,96,4.47,4.47,0,0,1,6,97a5,5,0,0,1-5,5,4.78,4.78,0,0,1-1-.1V99.83a3,3,0,1,0,2-5.66,3,3,0,0,0-2,0ZM80,272h2v32H80Zm37.9,32h-2.07a3,3,0,0,0-5.66,0H108.1a5,5,0,0,1,9.8,0ZM5.9,0A5,5,0,0,1,2,5.9,4.92,4.92,0,0,1,0,5.9V3.83A3,3,0,0,0,3.83,2a3,3,0,0,0,0-2ZM300.1,0h2.07A3,3,0,0,0,304,3.83h0V5.9A5,5,0,0,1,300.1,0ZM304,300.1v2.07a3,3,0,0,0-1.83,1.83H300.1A5,5,0,0,1,304,300.1ZM97,100a3,3,0,1,0-3-3A3,3,0,0,0,97,100Zm0-16a3,3,0,1,0-3-3A3,3,0,0,0,97,84Zm16,16a3,3,0,1,0-3-3A3,3,0,0,0,113,100Zm16,16a3,3,0,1,0-3-3A3,3,0,0,0,129,116Zm0,16a3,3,0,1,0-3-3A3,3,0,0,0,129,132ZM81,164a3,3,0,1,0-3-3A3,3,0,0,0,81,164Zm16,16a3,3,0,1,0-3-3A3,3,0,0,0,97,180Zm32,48a3,3,0,1,0-3-3A3,3,0,0,0,129,228Zm-16,16a3,3,0,1,0-3-3A3,3,0,0,0,113,244Zm32-16a3,3,0,1,0-3-3A3,3,0,0,0,145,228Zm0-32a3,3,0,1,0-3-3A3,3,0,0,0,145,196Zm16,32a3,3,0,1,0-3-3A3,3,0,0,0,161,228Zm32,16a3,3,0,1,0-3-3A3,3,0,0,0,193,244Zm0-16a3,3,0,1,0-3-3A3,3,0,0,0,193,228Zm-16-64a3,3,0,1,0-3-3A3,3,0,0,0,177,164Zm16,0a3,3,0,1,0-3-3A3,3,0,0,0,193,164Zm16,96a3,3,0,1,0-3-3A3,3,0,0,0,209,260Zm0,16a3,3,0,1,0-3-3A3,3,0,0,0,209,276Zm16,16a3,3,0,0,0,0-6h0a3,3,0,0,0,0,6Zm16-144a3,3,0,1,0-3-3A3,3,0,0,0,241,148Zm0,32a3,3,0,1,0-3-3A3,3,0,0,0,241,180Zm16-32a3,3,0,1,0-3-3A3,3,0,0,0,257,148Zm16-16a3,3,0,1,0-3-3A3,3,0,0,0,273,132Zm-96,0a3,3,0,1,0-3-3A3,3,0,0,0,177,132Zm0,16a3,3,0,1,0-3-3A3,3,0,0,0,177,148Zm16-32a3,3,0,1,0-3-3A3,3,0,0,0,193,116Zm96,0a3,3,0,1,0-3-3A3,3,0,0,0,289,116ZM273,52a3,3,0,1,0-3-3A3,3,0,0,0,273,52Zm16-16a3,3,0,1,0-3-3A3,3,0,0,0,289,36Zm-32,0a3,3,0,1,0-3-3A3,3,0,0,0,257,36Zm0-16a3,3,0,1,0-3-3A3,3,0,0,0,257,20Zm-16,0a3,3,0,1,0-3-3A3,3,0,0,0,241,20Zm-16,0a3,3,0,0,0,0-6h0a3,3,0,0,0,0,6Zm-16,0a3,3,0,1,0-3-3A3,3,0,0,0,209,20ZM49,36a3,3,0,1,0-3-3A3,3,0,0,0,49,36ZM17,36a3,3,0,1,0-3-3A3,3,0,0,0,17,36ZM49,52a3,3,0,1,0-3-3A3,3,0,0,0,49,52ZM33,68a3,3,0,1,0-3-3A3,3,0,0,0,33,68ZM49,20a3,3,0,1,0-3-3A3,3,0,0,0,49,20Zm0,240a3,3,0,1,0-3-3A3,3,0,0,0,49,260Zm16,32a3,3,0,1,0-3-3A3,3,0,0,0,65,292ZM49,228a3,3,0,1,0-3-3A3,3,0,0,0,49,228Zm0,16a3,3,0,1,0-3-3A3,3,0,0,0,49,244ZM33,212a3,3,0,1,0-3-3A3,3,0,0,0,33,212ZM113,36a3,3,0,1,0-3-3A3,3,0,0,0,113,36Zm16,0a3,3,0,1,0-3-3A3,3,0,0,0,129,36ZM113,20a3,3,0,1,0-3-3A3,3,0,0,0,113,20Zm32,48a3,3,0,1,0-3-3A3,3,0,0,0,145,68Zm16-16a3,3,0,1,0-3-3A3,3,0,0,0,161,52Zm0-32a3,3,0,1,0-3-3A3,3,0,0,0,161,20ZM273,196a3,3,0,1,0-3-3A3,3,0,0,0,273,196Zm-16,16a3,3,0,1,0-3-3A3,3,0,0,0,257,212Zm0,16a3,3,0,1,0-3-3A3,3,0,0,0,257,228Zm0,16a3,3,0,1,0-3-3A3,3,0,0,0,257,244ZM17,180a3,3,0,1,0-3-3A3,3,0,0,0,17,180Zm0,16a3,3,0,1,0-3-3A3,3,0,0,0,17,196Zm0-32a3,3,0,1,0-3-3A3,3,0,0,0,17,164Zm16,0a3,3,0,1,0-3-3A3,3,0,0,0,33,164ZM17,84a3,3,0,1,0-3-3A3,3,0,0,0,17,84Zm32,64a3,3,0,1,0-3-3A3,3,0,0,0,49,148Zm16-16a3,3,0,1,0-3-3A3,3,0,0,0,65,132Z"/></svg>