<svg id="visual" viewBox="0 0 900 600" width="900" height="600" xmlns="http://www.w3.org/2000/svg" xmlns:xlink="http://www.w3.org/1999/xlink" version="1.1"><g stroke-width="1" stroke-linejoin="bevel"><path d="M411 332L307.5 366L420 367Z" fill="#222427" stroke="#222427"></path><path d="M411 332L380.5 275L307.5 366Z" fill="#222427" stroke="#222427"></path><path d="M380.5 275L306.5 273L307.5 366Z" fill="#393c48" stroke="#393c48"></path><path d="M216 255L239 412L307.5 366Z" fill="#30333b" stroke="#30333b"></path><path d="M307.5 366L265 505L420 367Z" fill="#25272b" stroke="#25272b"></path><path d="M239 412L265 505L307.5 366Z" fill="#202124" stroke="#202124"></path><path d="M278 176L216 255L306.5 273Z" fill="#333640" stroke="#333640"></path><path d="M306.5 273L216 255L307.5 366Z" fill="#202124" stroke="#202124"></path><path d="M366.5 574L513.5 470L420 367Z" fill="#2d3037" stroke="#2d3037"></path><path d="M420 367L537.5 282L411 332Z" fill="#363944" stroke="#363944"></path><path d="M411 332L481 211L380.5 275Z" fill="#272a2f" stroke="#272a2f"></path><path d="M513.5 470L537.5 282L420 367Z" fill="#202124" stroke="#202124"></path><path d="M380.5 275L278 176L306.5 273Z" fill="#202124" stroke="#202124"></path><path d="M537.5 282L481 211L411 332Z" fill="#1d1e20" stroke="#1d1e20"></path><path d="M393 113L278 176L380.5 275Z" fill="#333640" stroke="#333640"></path><path d="M265 505L366.5 574L420 367Z" fill="#202124" stroke="#202124"></path><path d="M496 556L501.5 551L513.5 470Z" fill="#333640" stroke="#333640"></path><path d="M366.5 574L496 556L513.5 470Z" fill="#2d3037" stroke="#2d3037"></path><path d="M278 176L170.5 229L216 255Z" fill="#202124" stroke="#202124"></path><path d="M216 255L91.5 347L239 412Z" fill="#393c48" stroke="#393c48"></path><path d="M222 600L281.5 600L265 505Z" fill="#393c48" stroke="#393c48"></path><path d="M222 600L265 505L112.5 570Z" fill="#272a2f" stroke="#272a2f"></path><path d="M265 505L281.5 600L366.5 574Z" fill="#393c48" stroke="#393c48"></path><path d="M366.5 574L456 600L496 556Z" fill="#363944" stroke="#363944"></path><path d="M481 211L393 113L380.5 275Z" fill="#393c48" stroke="#393c48"></path><path d="M278 176L274 42L170.5 229Z" fill="#272a2f" stroke="#272a2f"></path><path d="M281.5 600L456 600L366.5 574Z" fill="#2d3037" stroke="#2d3037"></path><path d="M496 556L513.5 600L501.5 551Z" fill="#25272b" stroke="#25272b"></path><path d="M617 429L616 296L537.5 282Z" fill="#2d3037" stroke="#2d3037"></path><path d="M537.5 282L617 158L481 211Z" fill="#333640" stroke="#333640"></path><path d="M481 211L561.5 84L393 113Z" fill="#25272b" stroke="#25272b"></path><path d="M617 429L537.5 282L513.5 470Z" fill="#333640" stroke="#333640"></path><path d="M673 600L617 429L501.5 551Z" fill="#25272b" stroke="#25272b"></path><path d="M501.5 551L617 429L513.5 470Z" fill="#393c48" stroke="#393c48"></path><path d="M170.5 229L91.5 347L216 255Z" fill="#1d1e20" stroke="#1d1e20"></path><path d="M112.5 570L265 505L239 412Z" fill="#363944" stroke="#363944"></path><path d="M456 600L513.5 600L496 556Z" fill="#2d3037" stroke="#2d3037"></path><path d="M91.5 347L75.5 400L239 412Z" fill="#30333b" stroke="#30333b"></path><path d="M375.5 0L350.5 60L393 113Z" fill="#25272b" stroke="#25272b"></path><path d="M393 113L350.5 60L278 176Z" fill="#30333b" stroke="#30333b"></path><path d="M617.5 145L617 158L739.5 231Z" fill="#25272b" stroke="#25272b"></path><path d="M616 296L617 158L537.5 282Z" fill="#393c48" stroke="#393c48"></path><path d="M75.5 400L112.5 570L239 412Z" fill="#333640" stroke="#333640"></path><path d="M350.5 60L274 42L278 176Z" fill="#202124" stroke="#202124"></path><path d="M0 262L0 345L91.5 347Z" fill="#25272b" stroke="#25272b"></path><path d="M739.5 231L617 158L616 296Z" fill="#333640" stroke="#333640"></path><path d="M617 158L561.5 84L481 211Z" fill="#202124" stroke="#202124"></path><path d="M617.5 145L561.5 84L617 158Z" fill="#1d1e20" stroke="#1d1e20"></path><path d="M350.5 60L375.5 0L274 42Z" fill="#25272b" stroke="#25272b"></path><path d="M673 600L715 431L617 429Z" fill="#333640" stroke="#333640"></path><path d="M617 429L715 431L616 296Z" fill="#2a2d33" stroke="#2a2d33"></path><path d="M458 0L375.5 0L393 113Z" fill="#202124" stroke="#202124"></path><path d="M0 262L91.5 347L170.5 229Z" fill="#2d3037" stroke="#2d3037"></path><path d="M91.5 347L0 345L75.5 400Z" fill="#393c48" stroke="#393c48"></path><path d="M75.5 400L0 477L112.5 570Z" fill="#1d1e20" stroke="#1d1e20"></path><path d="M0 345L0 432L75.5 400Z" fill="#202124" stroke="#202124"></path><path d="M0 477L75.5 600L112.5 570Z" fill="#363944" stroke="#363944"></path><path d="M112.5 570L75.5 600L222 600Z" fill="#30333b" stroke="#30333b"></path><path d="M561.5 84L458 0L393 113Z" fill="#272a2f" stroke="#272a2f"></path><path d="M375.5 0L262 0L274 42Z" fill="#30333b" stroke="#30333b"></path><path d="M66.5 67L0 161L170.5 229Z" fill="#1d1e20" stroke="#1d1e20"></path><path d="M0 161L0 262L170.5 229Z" fill="#2a2d33" stroke="#2a2d33"></path><path d="M0 432L0 477L75.5 400Z" fill="#2d3037" stroke="#2d3037"></path><path d="M513.5 600L673 600L501.5 551Z" fill="#25272b" stroke="#25272b"></path><path d="M715 431L739.5 231L616 296Z" fill="#25272b" stroke="#25272b"></path><path d="M602 0L599.5 0L561.5 84Z" fill="#2a2d33" stroke="#2a2d33"></path><path d="M66.5 67L170.5 229L274 42Z" fill="#222427" stroke="#222427"></path><path d="M90.5 0L66.5 67L274 42Z" fill="#25272b" stroke="#25272b"></path><path d="M602 0L561.5 84L617.5 145Z" fill="#25272b" stroke="#25272b"></path><path d="M561.5 84L599.5 0L458 0Z" fill="#1d1e20" stroke="#1d1e20"></path><path d="M728 29L602 0L617.5 145Z" fill="#202124" stroke="#202124"></path><path d="M0 477L0 600L75.5 600Z" fill="#30333b" stroke="#30333b"></path><path d="M673 600L783.5 486L715 431Z" fill="#333640" stroke="#333640"></path><path d="M715 431L837.5 399L739.5 231Z" fill="#222427" stroke="#222427"></path><path d="M262 0L90.5 0L274 42Z" fill="#393c48" stroke="#393c48"></path><path d="M66.5 67L0 0L0 161Z" fill="#363944" stroke="#363944"></path><path d="M783.5 486L837.5 399L715 431Z" fill="#25272b" stroke="#25272b"></path><path d="M786.5 76L617.5 145L739.5 231Z" fill="#30333b" stroke="#30333b"></path><path d="M786.5 76L728 29L617.5 145Z" fill="#222427" stroke="#222427"></path><path d="M859.5 238L786.5 76L739.5 231Z" fill="#222427" stroke="#222427"></path><path d="M837.5 399L859.5 238L739.5 231Z" fill="#25272b" stroke="#25272b"></path><path d="M90.5 0L0 0L66.5 67Z" fill="#2a2d33" stroke="#2a2d33"></path><path d="M900 526L900 377L837.5 399Z" fill="#393c48" stroke="#393c48"></path><path d="M837.5 399L900 308L859.5 238Z" fill="#2a2d33" stroke="#2a2d33"></path><path d="M673 600L823.5 600L783.5 486Z" fill="#1d1e20" stroke="#1d1e20"></path><path d="M900 526L837.5 399L783.5 486Z" fill="#2d3037" stroke="#2d3037"></path><path d="M900 377L900 308L837.5 399Z" fill="#333640" stroke="#333640"></path><path d="M859.5 238L900 156L786.5 76Z" fill="#25272b" stroke="#25272b"></path><path d="M823.5 600L900 526L783.5 486Z" fill="#222427" stroke="#222427"></path><path d="M900 308L900 156L859.5 238Z" fill="#393c48" stroke="#393c48"></path><path d="M786.5 76L845.5 0L728 29Z" fill="#30333b" stroke="#30333b"></path><path d="M823.5 600L900 600L900 526Z" fill="#363944" stroke="#363944"></path><path d="M900 156L900 125L786.5 76Z" fill="#2a2d33" stroke="#2a2d33"></path><path d="M900 125L845.5 0L786.5 76Z" fill="#272a2f" stroke="#272a2f"></path><path d="M728 29L845.5 0L602 0Z" fill="#30333b" stroke="#30333b"></path><path d="M900 125L900 0L845.5 0Z" fill="#30333b" stroke="#30333b"></path></g></svg>