<svg id="Layer_1" data-name="Layer 1" xmlns="http://www.w3.org/2000/svg" viewBox="0 0 401.96 486.8"><defs><style>.cls-1,.cls-2,.cls-3,.cls-4{fill:none;stroke:#231f20;stroke-miterlimit:10;}.cls-1{stroke-width:3px;}.cls-3{stroke-width:0.25px;}.cls-4{stroke-width:0.75px;}.cls-5{fill:#f9ed32;opacity:0.32;}</style></defs><path class="cls-1" d="M385.44,85.94c1.1,4.62-13.39,10.75-19,13.12-24.73,10.46-69.84,18-98.09,22.13-5.31,15.14-16.9,32.4-34.19,36.26l-.25.05c-3.12-3.75-19.73-5.54-40.43-4.36a1.23,1.23,0,0,0-.27,0c-1.42,0-2.92.08-4.47.18-1.88.13-3.66.33-5.34.57a.84.84,0,0,0-.18,0c-24,2.38-42.69,7.8-42.9,12.53-21.89-.81-37.68-18.34-47.35-31.88-28.94.23-54.08-.82-73.49-3h0a125.34,125.34,0,0,1-15.39-6.44c-2.55-1.28-3.83-1.93-4-2.26-2.65-6.31,48.48-35.28,110.43-47.35,19.5-3.8,38.34-5.42,76-8.67,14.29-1.23,31.56-2.72,54.21-3.66,0,0,89.45-3.68,140.72,19.69C382.73,83.43,385.05,84.29,385.44,85.94Z" transform="translate(1.5 -2.56)"/><path class="cls-1" d="M240.67,62.12c0,.32.06.68.09,1.06-17.36.82-35.53,2-54.21,3.65-26.87,2.32-52.5,5.28-76,8.68C105.27,50.07,132.81,8.18,164.3,4.36,196.87.4,238.21,36.61,240.67,62.12Z" transform="translate(1.5 -2.56)"/><path class="cls-1" d="M180.72,113.76" transform="translate(1.5 -2.56)"/><path class="cls-2" d="M215.55,160.42c.31,2.57-12,5.74-27.6,7.09s-28.39.35-28.7-2.22c-.05-.42.23-.85.82-1.29,3-2.27,13.75-4.68,26.77-5.81s24.15-.6,27.6,1.11C215.13,159.63,215.5,160,215.55,160.42Z" transform="translate(1.5 -2.56)"/><path class="cls-1" d="M233.91,157.5c-3.12-3.75-19.73-5.54-40.43-4.36a1.23,1.23,0,0,0-.27,0c-2.27.12-4.57.28-6.92.49l-2.89.26a.84.84,0,0,0-.18,0c-24,2.38-42.69,7.8-42.9,12.53a.76.76,0,0,0,0,.3c.59,5,22.14,7.25,48.14,5s46.59-8.13,46-13.14A2.11,2.11,0,0,0,233.91,157.5Zm-46,10c-15.55,1.34-28.39.35-28.7-2.22-.05-.42.23-.85.82-1.29,3-2.27,13.75-4.68,26.77-5.81s24.15-.6,27.6,1.11c.69.33,1.06.7,1.11,1.12C215.86,163,203.51,166.16,188,167.51Z" transform="translate(1.5 -2.56)"/><path class="cls-1" d="M97.77,140.92a8.23,8.23,0,0,1-.48-5.24c1.1-4.1,6.54-9.37,47.44-16.66,10.25-1.83,18.17-3.24,30.12-4.58,26.5-3,43.59-2.29,49.54-2,33,1.69,38,8.33,39.36,10.76a11.23,11.23,0,0,1,1.42,5.63" transform="translate(1.5 -2.56)"/><path class="cls-2" d="M215.55,160.42c.31,2.57-12,5.74-27.6,7.09s-28.39.35-28.7-2.22c-.05-.42.23-.85.82-1.29,3-2.27,13.75-4.68,26.77-5.81s24.15-.6,27.6,1.11C215.13,159.63,215.5,160,215.55,160.42Z" transform="translate(1.5 -2.56)"/><path class="cls-3" d="M159.08,164a215.16,215.16,0,0,0,28.32-.58,211.35,211.35,0,0,0,28-4.29" transform="translate(1.5 -2.56)"/><line class="cls-2" x1="169.65" y1="161.61" x2="167.63" y2="164.71"/><line class="cls-2" x1="188.9" y1="160.81" x2="189.45" y2="164.95"/><line class="cls-2" x1="207.16" y1="158.45" x2="209.29" y2="161.45"/><line class="cls-2" x1="179.05" y1="161.43" x2="178.23" y2="165.28"/><line class="cls-2" x1="198.81" y1="159.72" x2="200.42" y2="163.36"/><path class="cls-1" d="M17.06,108.33C101.84,75.27,196.87,70.18,288.44,67a288.91,288.91,0,0,1,93.41,15.85" transform="translate(1.5 -2.56)"/><path class="cls-1" d="M19.82,132c-3.64-3.86-.55-8.82,2.72-12.24C37.81,109,55.83,105.88,73.67,101.2c50.23-10.61,99-18,150.35-19.27,44-.68,89.75-3.06,131.83,10.53,3.82,1.23,6,4.18,2.9,9.49" transform="translate(1.5 -2.56)"/><path class="cls-1" d="M173.41,86.09a48.58,48.58,0,0,1,5.74,13,45.3,45.3,0,0,1,1.57,14.72" transform="translate(1.5 -2.56)"/><path class="cls-1" d="M351.89,90.63a153.84,153.84,0,0,1-35,19.27,167.81,167.81,0,0,1-26.4,7.92" transform="translate(1.5 -2.56)"/><path class="cls-1" d="M20.94,122a141.72,141.72,0,0,0,27.23,9.08,147.74,147.74,0,0,0,26.36,3.48" transform="translate(1.5 -2.56)"/><path class="cls-1" d="M92.27,97.88a25,25,0,0,0,.86,7c3,11.15,13.14,17.62,17.12,19.89" transform="translate(1.5 -2.56)"/><path class="cls-1" d="M263,83.11c.25,3.22.78,15.87-9.75,25.39a34.67,34.67,0,0,1-9.32,6" transform="translate(1.5 -2.56)"/><ellipse class="cls-1" cx="66.41" cy="116.81" rx="10.35" ry="7.29" transform="translate(-4.75 1.22) rotate(-3.11)"/><ellipse class="cls-1" cx="222.41" cy="96" rx="10.35" ry="7.29" transform="translate(-3.39 9.66) rotate(-3.11)"/><ellipse class="cls-1" cx="138.71" cy="103.24" rx="10.35" ry="7.29" transform="translate(-3.9 5.13) rotate(-3.11)"/><ellipse class="cls-1" cx="298.36" cy="96.75" rx="10.35" ry="7.29" transform="translate(-3.31 13.79) rotate(-3.11)"/><ellipse class="cls-1" cx="371.18" cy="93.1" rx="2.62" ry="2.23"/><ellipse class="cls-1" cx="362.72" cy="80.83" rx="2.62" ry="2.23"/><ellipse class="cls-1" cx="194.09" cy="74.19" rx="2.62" ry="2.23"/><ellipse class="cls-1" cx="221.43" cy="72.63" rx="2.62" ry="2.23"/><ellipse class="cls-1" cx="253.63" cy="71.28" rx="2.62" ry="2.23"/><ellipse class="cls-1" cx="281.63" cy="71.1" rx="2.62" ry="2.23"/><ellipse class="cls-1" cx="311.56" cy="72.54" rx="2.62" ry="2.23"/><ellipse class="cls-1" cx="340.33" cy="76.78" rx="2.62" ry="2.23"/><ellipse class="cls-1" cx="18.14" cy="112.88" rx="2.62" ry="2.23"/><ellipse class="cls-1" cx="13.57" cy="123.59" rx="2.62" ry="2.23"/><ellipse class="cls-1" cx="38.51" cy="103.3" rx="2.62" ry="2.23"/><ellipse class="cls-1" cx="68.24" cy="94.99" rx="2.62" ry="2.23"/><ellipse class="cls-1" cx="99.6" cy="87.8" rx="2.62" ry="2.23"/><ellipse class="cls-1" cx="129.93" cy="82.37" rx="2.62" ry="2.23"/><ellipse class="cls-1" cx="164.73" cy="77.55" rx="2.62" ry="2.23"/><line class="cls-1" x1="196.91" y1="57.65" x2="231.86" y2="54.63"/><line class="cls-2" x1="198.49" y1="55.7" x2="229.44" y2="53.02"/><line class="cls-2" x1="200.65" y1="53.53" x2="228.75" y2="51.1"/><line class="cls-2" x1="203.01" y1="51.59" x2="220" y2="50.12"/><line class="cls-2" x1="204.66" y1="49.87" x2="216.14" y2="48.87"/><line class="cls-2" x1="208.17" y1="48.14" x2="209.55" y2="48.02"/><line class="cls-2" x1="191.47" y1="116.56" x2="236.62" y2="112.65"/><line class="cls-2" x1="193.81" y1="118.59" x2="233.99" y2="115.11"/><line class="cls-2" x1="196.43" y1="120.06" x2="230.82" y2="117.08"/><line class="cls-2" x1="199.73" y1="121.47" x2="222.8" y2="119.47"/><line class="cls-2" x1="206.13" y1="122.61" x2="214.12" y2="121.92"/><line class="cls-2" x1="209.4" y1="123.65" x2="211.95" y2="123.43"/><line class="cls-2" x1="191.25" y1="114.7" x2="213.41" y2="112.78"/><path class="cls-2" d="M222.69,281.77c-1.88,3.14-4.57,5.68-7.26,6.68-3.51,1.3-4.87-.54-13.75-.22-7.48.26-8.23,1.62-11.31.74a15.75,15.75,0,0,1-7.5-5.24c-2.75-3.32-4.37-7.59-3.58-11.25.65-3,3-5.74,5.5-8a45.3,45.3,0,0,1,8.48-5.81,10.72,10.72,0,0,0,2.93-2.25c.43-.48,3-3.36,2.54-6a4.4,4.4,0,0,0-.18-.62l.2,0a.61.61,0,0,1,.33,0c.07,0,.09.07.15.09a.55.55,0,0,0,.42,0c.36-.11.46.08,1,0,.2,0,.15-.05.4-.08a5,5,0,0,1,.87-.06,1.1,1.1,0,0,1,.51.13c.06,0,.23.11.34.05s.05-.05.08-.09.15-.07.44,0a4.11,4.11,0,0,1,.43.1c-.73,4,6.88,6.82,13.22,11.24,3.78,2.64,7.12,5.84,8,10.16A15.45,15.45,0,0,1,222.69,281.77Z" transform="translate(1.5 -2.56)"/><path class="cls-2" d="M209.7,243.75c.31.46-5.36,2.83-5.94,6a4.11,4.11,0,0,0-.43-.1c-.29,0-.38,0-.44,0s0,.06-.08.09-.28,0-.34-.05a1.1,1.1,0,0,0-.51-.13,5,5,0,0,0-.87.06c-.25,0-.2.06-.4.08-.57,0-.67-.14-1,0a.55.55,0,0,1-.42,0c-.06,0-.08-.06-.15-.09a.61.61,0,0,0-.33,0l-.2,0c-1.4-3.77-8.59-5.57-8.42-6,0-.07.29-.05.57,0l.32.07a26.44,26.44,0,0,0,6.2,1.32,10.67,10.67,0,0,0,3.44,0c.87-.21,1.52-.53,2.39-.7h0a6.22,6.22,0,0,1,1.22-.12c.66,0,.65.1,1.35.13C208,244.53,209.54,243.51,209.7,243.75Z" transform="translate(1.5 -2.56)"/><path class="cls-2" d="M186.45,239.48" transform="translate(1.5 -2.56)"/><path class="cls-2" d="M190.49,243.8a11.76,11.76,0,0,1,4.14-.06,17.46,17.46,0,0,0,2.15.39,27.18,27.18,0,0,0,3.16-.22,8.68,8.68,0,0,1,3.17.54" transform="translate(1.5 -2.56)"/><path class="cls-2" d="M204.68,244.25a3.92,3.92,0,0,1,1.53-.47c.52-.05.79.05,1.41,0a5.88,5.88,0,0,0,1.48-.22" transform="translate(1.5 -2.56)"/><path class="cls-2" d="M198.56,249.73l-.28,0" transform="translate(1.5 -2.56)"/><path class="cls-2" d="M199.18,251.08a.83.83,0,0,1,.49,0l.13.06a1.11,1.11,0,0,0,.78,0c.49-.11,1.07-.2,1.31-.23l.33-.06.33-.09.43-.14a2.34,2.34,0,0,0,.51-.27l-.26,0-.21,0a2.19,2.19,0,0,0-.37,0,16.87,16.87,0,0,1-1.94.12,5.06,5.06,0,0,0-.87,0,1.27,1.27,0,0,1-.3,0h-.25l-.56-.07" transform="translate(1.5 -2.56)"/><path class="cls-2" d="M216.08,255.62" transform="translate(1.5 -2.56)"/><path class="cls-2" d="M219.8,257.35" transform="translate(1.5 -2.56)"/><path class="cls-2" d="M200.69,249.74c-.22-.32-.44-.66-.65-1-.6-1.08-.42-1.84-1.08-2.65a2.75,2.75,0,0,0-.54-.52" transform="translate(1.5 -2.56)"/><path class="cls-2" d="M202,249.6a1.87,1.87,0,0,1-.21-1.57,1.89,1.89,0,0,1,1.12-1.15" transform="translate(1.5 -2.56)"/><path class="cls-2" d="M200.58,251.14a3.55,3.55,0,0,0-.64,1.27,3.72,3.72,0,0,0-.08,1,9,9,0,0,1-.71,3.25A10.24,10.24,0,0,1,195.5,261" transform="translate(1.5 -2.56)"/><path class="cls-2" d="M202.22,250.85a22.11,22.11,0,0,0,1.15,2.77,24.68,24.68,0,0,0,1.42,2.48c.58.9,1.21,1.79,1.56,2.25a14.73,14.73,0,0,0,5.46,3.94" transform="translate(1.5 -2.56)"/><path class="cls-2" d="M201.16,254.13a8.37,8.37,0,0,1-.18,4,7.78,7.78,0,0,1-.74,1.68c-1,1.65-2.46,4.54-4.62,8.88" transform="translate(1.5 -2.56)"/><path class="cls-2" d="M216.51,265.26a13.24,13.24,0,0,0-9.3,1.31c-1.39.8-5.33,3.41-4.81,5.34,1,3.76,17.59.57,18.8,4.75.58,2-2.4,5.66-5.29,7.51a10.13,10.13,0,0,1-1.12.63c-1.34.67-4.64,2-10,.8" transform="translate(1.5 -2.56)"/><path class="cls-2" d="M207.94,264A40.13,40.13,0,0,1,213,287.2" transform="translate(1.5 -2.56)"/><path class="cls-2" d="M212,263.46a40.13,40.13,0,0,1,5.1,23.19" transform="translate(1.5 -2.56)"/><path class="cls-2" d="M259.13,278.08a9.21,9.21,0,0,1-2.63,2.37c-4.31,2.55-9.26.48-10,.16" transform="translate(1.5 -2.56)"/><path class="cls-2" d="M253.15,260.15a12.13,12.13,0,0,0-6.82,3.52c-1,1.08-2.3,2.43-2,3.53.34,1.27,2.9,2.54,13.45,2.11" transform="translate(1.5 -2.56)"/><path class="cls-2" d="M249.65,259a22.16,22.16,0,0,1,5,7.67,21.93,21.93,0,0,1,1.3,10.72,21.24,21.24,0,0,1-1.21,4.79" transform="translate(1.5 -2.56)"/><path class="cls-2" d="M258.26,270.79A40.87,40.87,0,0,1,259,280" transform="translate(1.5 -2.56)"/><path class="cls-2" d="M257.88,281.56c-1.57,1.54-5.3,1.52-12.76,1.48-4.14,0-4.07-.35-7-.17-4.29.26-6.27,1.06-8.46,0a8.32,8.32,0,0,0-3.08-1l-2.08-.09-1.78-.05A13.48,13.48,0,0,0,219,262.54a11.93,11.93,0,0,1,.48-1.55s1.95-5,8.49-8.46l.08,0a10.5,10.5,0,0,0,2.94-2.25c.42-.48,3-3.36,2.53-6.05a3.38,3.38,0,0,0-.18-.62c-1.4-3.77-8.59-5.57-8.41-6,0-.07.28-.05.56,0l.33.08a27,27,0,0,0,6.2,1.31,10.32,10.32,0,0,0,3.43,0c.87-.2,1.52-.52,2.38-.7h0a7.55,7.55,0,0,1,1.25-.11c.67,0,.65.1,1.35.12,2.4.09,3.89-.93,4.06-.69s-5.19,2.68-5.94,6c-1.16,5.19,10.09,8.41,16.69,20.17C258.51,269.53,261.19,278.33,257.88,281.56Z" transform="translate(1.5 -2.56)"/><path class="cls-4" d="M221.28,233.33" transform="translate(1.5 -2.56)"/><path class="cls-2" d="M225.31,237.64a12,12,0,0,1,4.15,0,17.15,17.15,0,0,0,2.15.38,25,25,0,0,0,3.15-.22,8.78,8.78,0,0,1,3.18.55" transform="translate(1.5 -2.56)"/><path class="cls-2" d="M239.51,238.09a3.92,3.92,0,0,1,1.53-.47c.52-.05.78,0,1.41,0a6.19,6.19,0,0,0,1.47-.22" transform="translate(1.5 -2.56)"/><path class="cls-2" d="M233.11,243.6a2.47,2.47,0,0,0,.48-.07.58.58,0,0,1,.32,0c.08,0,.1.07.16.09a.55.55,0,0,0,.42,0c.36-.12.46.08,1,0,.2,0,.15,0,.39-.07a2.42,2.42,0,0,1,1.39.06c.06,0,.23.12.34.05s0-.05.08-.08.14-.08.43,0a2.63,2.63,0,0,1,.44.09" transform="translate(1.5 -2.56)"/><path class="cls-2" d="M234,244.92a.83.83,0,0,1,.49,0l.12.07a1.26,1.26,0,0,0,.79,0,12.8,12.8,0,0,1,1.31-.24l.32-.06.33-.09.44-.14a2.34,2.34,0,0,0,.51-.27l-.27-.05-.2,0a1.32,1.32,0,0,0-.37,0,15.6,15.6,0,0,1-1.95.11,5.07,5.07,0,0,0-.87,0,1.19,1.19,0,0,1-.3,0h-.24l-.56-.07" transform="translate(1.5 -2.56)"/><path class="cls-2" d="M250.91,249.46" transform="translate(1.5 -2.56)"/><path class="cls-2" d="M254.62,251.19" transform="translate(1.5 -2.56)"/><path class="cls-2" d="M235.52,243.58a11,11,0,0,1-.65-1,13.41,13.41,0,0,1-1.08-2.64h0" transform="translate(1.5 -2.56)"/><path class="cls-2" d="M236.79,243.44a3.2,3.2,0,0,0-.95-2.67" transform="translate(1.5 -2.56)"/><path class="cls-2" d="M235.41,245a3.12,3.12,0,0,0-.64,1.27,5.15,5.15,0,0,0-.08,1,3.48,3.48,0,0,1-1,1.86,6.61,6.61,0,0,0-1.31,3.13" transform="translate(1.5 -2.56)"/><path class="cls-2" d="M237,244.69a23,23,0,0,0,1.15,2.78,27.64,27.64,0,0,0,1.43,2.47c.79,1.24,1.45,2.1,1.56,2.25.84,1.14,1.51,3.71.91,9.93" transform="translate(1.5 -2.56)"/><path class="cls-2" d="M236.53,250.4a19.76,19.76,0,0,0-4,5.56,27.35,27.35,0,0,0-1,2.6,29.65,29.65,0,0,0-1.06,3.95" transform="translate(1.5 -2.56)"/><path class="cls-2" d="M179.29,272.48a12.09,12.09,0,0,0,.46,5.75,17.58,17.58,0,0,0,3.12,5.5c1.68,1,1.87,1.59,1.8,1.9s-.77.75-4.72,1.39c-2,.33-3,.49-4,.58a69.56,69.56,0,0,1-10.46,0,48,48,0,0,0-5.94-.27c-3,.15-3.54.63-5.14.66a11.66,11.66,0,0,1-9.32-5c-2.93-4.43-1-9.93.94-15.16,1.25-3.48,2.34-6.5,5.23-8.69a46.51,46.51,0,0,0,5-3.66c2.13-1.88,1-1.41,3.35-3.66.71-.68,1.72-1.61,1.61-2.74a1.92,1.92,0,0,0-.18-.62h0c-1.39-3.76-8.58-5.56-8.4-6,0-.08.27-.06.56,0a2,2,0,0,1,.33.09,28,28,0,0,0,6.2,1.31,10.27,10.27,0,0,0,3.43,0c.87-.2,1.53-.52,2.38-.69h0a6.42,6.42,0,0,1,1.24-.11c.66,0,.65.09,1.34.11,2.4.1,3.9-.93,4.07-.68s-5.43,2.41-6,6a5.48,5.48,0,0,0,.66,3.13c.65,1.37,1.56,2.06,3.81,3.7,3.58,2.59,5.37,3.89,5.9,4.16,2.51,1.26,3.72,1.27,5.89,2.89a15.55,15.55,0,0,1,2.24,2A12.78,12.78,0,0,0,179.29,272.48Z" transform="translate(1.5 -2.56)"/><path class="cls-2" d="M255.28,263.77" transform="translate(1.5 -2.56)"/><path class="cls-2" d="M153,242.59a11.76,11.76,0,0,1,4.14-.06,16.05,16.05,0,0,0,2.15.38,23.39,23.39,0,0,0,3.16-.22,9,9,0,0,1,3.18.55" transform="translate(1.5 -2.56)"/><path class="cls-2" d="M167.22,243a3.84,3.84,0,0,1,1.52-.47c.53,0,.79.05,1.41,0a5.8,5.8,0,0,0,1.48-.22" transform="translate(1.5 -2.56)"/><path class="cls-2" d="M160.81,248.55a3.32,3.32,0,0,0,.49-.08.57.57,0,0,1,.32,0c.08,0,.09.06.16.09a.58.58,0,0,0,.41-.05c.36-.11.47.08,1,0,.2,0,.14,0,.39-.07a2.51,2.51,0,0,1,1.39.06c.06,0,.22.12.34.05s0,0,.08-.08.14-.07.43,0a2.53,2.53,0,0,1,.43.1" transform="translate(1.5 -2.56)"/><path class="cls-2" d="M161.71,249.87a.83.83,0,0,1,.49,0l.13.06a1.17,1.17,0,0,0,.78,0c.5-.11,1.07-.21,1.32-.24l.32-.05.33-.1.44-.13a2.49,2.49,0,0,0,.51-.28l-.27,0-.2,0a1.3,1.3,0,0,0-.37,0,15.6,15.6,0,0,1-1.95.11,6.32,6.32,0,0,0-.87,0s-.14,0-.3,0h-.25l-.55-.08" transform="translate(1.5 -2.56)"/><path class="cls-2" d="M178.61,254.4" transform="translate(1.5 -2.56)"/><path class="cls-2" d="M182.33,256.13" transform="translate(1.5 -2.56)"/><path class="cls-2" d="M163.23,248.52a3.75,3.75,0,0,1-.66-1c-.21-.53-.18-.83-.44-1.15a1.68,1.68,0,0,0-.94-.53" transform="translate(1.5 -2.56)"/><path class="cls-2" d="M164.49,248.38a9.67,9.67,0,0,1,1.48-1.74,9.08,9.08,0,0,1,1.47-1.13" transform="translate(1.5 -2.56)"/><path class="cls-2" d="M163.11,249.93a3.32,3.32,0,0,0-.63,1.27,3.06,3.06,0,0,0-.08,1,35.6,35.6,0,0,0,1.4,5.51c.34,1.21.41,3.07-.93,5.76" transform="translate(1.5 -2.56)"/><path class="cls-2" d="M171.46,257.81a25.58,25.58,0,0,1-2.57-.68A10,10,0,0,1,166.1,256a5,5,0,0,1-1.84-1.87c-1-2,.32-4.21.49-4.49" transform="translate(1.5 -2.56)"/><path class="cls-2" d="M152.67,262.67c-.11.46-.27,1.16-.45,2-.65,3-.61,3.35-1,4.57a10.73,10.73,0,0,1-1.67,3.79c-1.18,1.53-2.15,1.61-2.38,2.63-.14.67,0,1.76,1.78,3.44" transform="translate(1.5 -2.56)"/><path class="cls-2" d="M163.55,248.38a1.84,1.84,0,0,1-.21-1.56,1.92,1.92,0,0,1,1.12-1.16" transform="translate(1.5 -2.56)"/><path class="cls-2" d="M173.06,267.07c-.31-.2-6.23-4-12-1-1.66.85-5.25,3.23-4.82,5.35.92,4.49,18.84,2.47,19.66,6.71.4,2.07-3.52,4.58-6.15,5.55-6.75,2.48-12.85-2.28-13.29-2.63" transform="translate(1.5 -2.56)"/><path class="cls-2" d="M164.11,262.24c-.2,4-.28,8.28-.19,12.78.08,3.84.27,7.5.55,11" transform="translate(1.5 -2.56)"/><path class="cls-2" d="M167.38,262.25a72.41,72.41,0,0,1,1.26,12.95,74.59,74.59,0,0,1-.73,10.78" transform="translate(1.5 -2.56)"/><path class="cls-2" d="M225.18,301.43" transform="translate(1.5 -2.56)"/><path class="cls-2" d="M232.2,285.17" transform="translate(1.5 -2.56)"/><polyline class="cls-5" points="215.71 156.52 401.96 486.8 85.68 486.8 159.41 161.39"/></svg>