<svg id="Layer_1" data-name="Layer 1" xmlns="http://www.w3.org/2000/svg" viewBox="0 0 402.31 487.14"><defs><style>.cls-1{fill:#f9ed32;opacity:0.32;}.cls-2,.cls-3,.cls-4,.cls-5{fill:none;stroke:#231f20;stroke-miterlimit:10;}.cls-3{stroke-width:0.25px;}.cls-4{stroke-width:0.5px;}.cls-5{stroke-width:0.75px;}</style></defs><polyline class="cls-1" points="216.29 156.51 402.54 486.79 86.25 486.79 159.98 161.38"/><path class="cls-2" d="M385.94,82.38c1.1,4.62-13.39,10.75-19,13.12-24.73,10.46-69.84,18-98.09,22.13-5.31,15.14-16.9,32.4-34.19,36.26l-.25.05c-3.12-3.75-19.73-5.54-40.43-4.36a1.23,1.23,0,0,0-.27,0c-1.42,0-2.92.08-4.47.18-1.88.13-3.66.33-5.34.57a.84.84,0,0,0-.18,0c-24,2.38-42.69,7.8-42.9,12.53-21.89-.81-37.68-18.34-47.35-31.88-28.94.23-54.08-.82-73.49-3h0a125.34,125.34,0,0,1-15.39-6.44C2,120.27.74,119.62.6,119.29-2,113,49.08,84,111,71.94c19.5-3.8,38.34-5.42,76-8.67,14.29-1.23,31.56-2.72,54.21-3.66,0,0,89.45-3.68,140.72,19.69C383.23,79.87,385.55,80.72,385.94,82.38Z"/><path class="cls-2" d="M241.17,58.56c0,.32.06.68.09,1.06-17.36.82-35.53,2-54.21,3.65-26.87,2.32-52.5,5.28-76,8.68C105.77,46.51,133.31,4.62,164.8.8,197.37-3.16,238.71,33.05,241.17,58.56Z"/><path class="cls-2" d="M216.05,156.86c.31,2.57-12,5.74-27.6,7.09s-28.39.35-28.7-2.22c-.05-.42.23-.85.82-1.29,3-2.27,13.75-4.68,26.77-5.81s24.15-.6,27.6,1.1C215.63,156.07,216,156.44,216.05,156.86Z"/><path class="cls-2" d="M234.41,153.94c-3.12-3.75-19.73-5.54-40.43-4.36a1.23,1.23,0,0,0-.27,0c-2.27.12-4.57.28-6.92.49l-2.89.26a.84.84,0,0,0-.18,0c-24,2.38-42.69,7.8-42.9,12.53a.76.76,0,0,0,0,.3c.59,5,22.14,7.25,48.14,5s46.59-8.13,46-13.14A2.11,2.11,0,0,0,234.41,153.94Zm-46,10c-15.55,1.34-28.39.35-28.7-2.22-.05-.42.23-.85.82-1.29,3-2.27,13.75-4.68,26.77-5.81s24.15-.6,27.6,1.1c.69.34,1.06.71,1.11,1.13C216.36,159.43,204,162.6,188.45,164Z"/><path class="cls-2" d="M98.27,137.36a8.23,8.23,0,0,1-.48-5.24c1.1-4.1,6.54-9.37,47.44-16.66,10.25-1.83,18.17-3.24,30.12-4.58,26.5-3,43.59-2.29,49.54-2,33,1.69,38,8.33,39.36,10.76a11.23,11.23,0,0,1,1.42,5.63"/><path class="cls-2" d="M216.05,156.86c.31,2.57-12,5.74-27.6,7.09s-28.39.35-28.7-2.22c-.05-.42.23-.85.82-1.29,3-2.27,13.75-4.68,26.77-5.81s24.15-.6,27.6,1.1C215.63,156.07,216,156.44,216.05,156.86Z"/><path class="cls-3" d="M159.58,160.39a215.16,215.16,0,0,0,28.32-.58,211.35,211.35,0,0,0,28-4.29"/><line class="cls-2" x1="168.65" y1="160.61" x2="166.63" y2="163.71"/><line class="cls-2" x1="187.9" y1="159.81" x2="188.45" y2="163.95"/><line class="cls-2" x1="206.16" y1="157.45" x2="208.29" y2="160.45"/><line class="cls-2" x1="178.05" y1="160.43" x2="177.23" y2="164.28"/><line class="cls-2" x1="197.81" y1="158.72" x2="199.42" y2="162.36"/><path class="cls-2" d="M17.56,104.77C102.34,71.71,197.37,66.62,288.94,63.4a288.91,288.91,0,0,1,93.41,15.85"/><path class="cls-2" d="M20.32,128.4c-3.64-3.86-.55-8.82,2.72-12.24,15.27-10.72,33.29-13.84,51.13-18.52,50.23-10.61,99-18,150.35-19.27,44-.68,89.75-3.06,131.83,10.53,3.82,1.23,6,4.18,2.9,9.49"/><path class="cls-2" d="M173.91,82.53a48.43,48.43,0,0,1,5.74,13,45.3,45.3,0,0,1,1.57,14.72"/><path class="cls-2" d="M352.39,87.07a153.84,153.84,0,0,1-35,19.27,167.81,167.81,0,0,1-26.4,7.92"/><path class="cls-2" d="M21.44,118.43a141.72,141.72,0,0,0,27.23,9.08A147.74,147.74,0,0,0,75,131"/><path class="cls-2" d="M92.77,94.32a24.91,24.91,0,0,0,.86,7c3,11.16,13.14,17.63,17.12,19.9"/><path class="cls-2" d="M263.47,79.55c.25,3.22.78,15.87-9.75,25.39a34.67,34.67,0,0,1-9.32,6"/><ellipse class="cls-2" cx="66.91" cy="113.25" rx="10.35" ry="7.29" transform="translate(-6.05 3.8) rotate(-3.11)"/><ellipse class="cls-2" cx="222.91" cy="92.44" rx="10.35" ry="7.29" transform="translate(-4.69 12.24) rotate(-3.11)"/><ellipse class="cls-2" cx="139.21" cy="99.68" rx="10.35" ry="7.29" transform="translate(-5.21 7.71) rotate(-3.11)"/><ellipse class="cls-2" cx="298.86" cy="93.19" rx="10.35" ry="7.29" transform="translate(-4.62 16.37) rotate(-3.11)"/><ellipse class="cls-4" cx="370.18" cy="92.1" rx="2.62" ry="2.23"/><ellipse class="cls-4" cx="361.72" cy="79.83" rx="2.62" ry="2.23"/><ellipse class="cls-4" cx="193.09" cy="73.19" rx="2.62" ry="2.23"/><ellipse class="cls-4" cx="220.43" cy="71.63" rx="2.62" ry="2.23"/><ellipse class="cls-4" cx="252.63" cy="70.28" rx="2.62" ry="2.23"/><ellipse class="cls-4" cx="280.63" cy="70.1" rx="2.62" ry="2.23"/><ellipse class="cls-4" cx="310.56" cy="71.54" rx="2.62" ry="2.23"/><ellipse class="cls-4" cx="339.33" cy="75.78" rx="2.62" ry="2.23"/><ellipse class="cls-4" cx="17.14" cy="111.88" rx="2.62" ry="2.23"/><ellipse class="cls-4" cx="12.57" cy="122.59" rx="2.62" ry="2.23"/><ellipse class="cls-4" cx="37.51" cy="102.3" rx="2.62" ry="2.23"/><ellipse class="cls-4" cx="67.24" cy="93.99" rx="2.62" ry="2.23"/><ellipse class="cls-4" cx="98.6" cy="86.8" rx="2.62" ry="2.23"/><ellipse class="cls-4" cx="128.93" cy="81.37" rx="2.62" ry="2.23"/><ellipse class="cls-4" cx="163.73" cy="76.55" rx="2.62" ry="2.23"/><line class="cls-5" x1="195.91" y1="56.65" x2="230.86" y2="53.63"/><line class="cls-4" x1="197.49" y1="54.7" x2="228.44" y2="52.02"/><line class="cls-4" x1="199.65" y1="52.53" x2="227.75" y2="50.1"/><line class="cls-3" x1="202.01" y1="50.59" x2="219" y2="49.12"/><line class="cls-3" x1="203.66" y1="48.87" x2="215.14" y2="47.87"/><line class="cls-3" x1="207.17" y1="47.14" x2="208.55" y2="47.02"/><line class="cls-5" x1="190.47" y1="115.56" x2="235.62" y2="111.65"/><line class="cls-5" x1="192.81" y1="117.59" x2="232.99" y2="114.11"/><line class="cls-4" x1="195.43" y1="119.06" x2="229.82" y2="116.08"/><line class="cls-4" x1="198.73" y1="120.47" x2="221.8" y2="118.47"/><line class="cls-3" x1="205.13" y1="121.61" x2="213.12" y2="120.92"/><line class="cls-3" x1="208.4" y1="122.65" x2="210.95" y2="122.43"/><line class="cls-5" x1="190.25" y1="113.7" x2="212.41" y2="111.78"/><path class="cls-5" d="M271.55,446c-2.91,4.9-7.1,8.84-11.29,10.4-5.46,2-7.58-.84-21.39-.34-11.65.4-12.81,2.52-17.6,1.16a24.65,24.65,0,0,1-11.68-8.16c-4.27-5.17-6.8-11.81-5.56-17.5,1-4.63,4.59-8.94,8.55-12.48a72.38,72.38,0,0,1,13.19-9.05,16.46,16.46,0,0,0,4.57-3.5c.67-.74,4.73-5.22,3.95-9.41a6.35,6.35,0,0,0-.28-1,3,3,0,0,0,.31-.07,1.1,1.1,0,0,1,.51,0c.12.05.15.1.24.14a.81.81,0,0,0,.65-.08c.56-.17.72.13,1.61,0,.31,0,.23-.06.61-.11a7.71,7.71,0,0,1,1.36-.1,1.93,1.93,0,0,1,.8.2c.09,0,.35.18.53.08s.07-.08.12-.13.23-.12.68-.05a4.56,4.56,0,0,1,.68.15c-1.14,6.17,10.69,10.62,20.56,17.49,5.89,4.11,11.09,9.08,12.42,15.81C276.17,435,274.54,441,271.55,446Z"/><path class="cls-5" d="M251.35,386.87c.48.71-8.34,4.4-9.24,9.35a4.56,4.56,0,0,0-.68-.15c-.45-.07-.59,0-.68.05s-.05.09-.12.13-.44,0-.53-.08a1.93,1.93,0,0,0-.8-.2,7.71,7.71,0,0,0-1.36.1c-.38.05-.3.09-.61.11-.89.09-1.05-.21-1.61,0a.81.81,0,0,1-.65.08c-.09,0-.12-.09-.24-.14a1.1,1.1,0,0,0-.51,0,3,3,0,0,1-.31.07c-2.18-5.86-13.37-8.66-13.1-9.3.06-.11.45-.07.88,0a3.14,3.14,0,0,1,.51.12,42.13,42.13,0,0,0,9.65,2.05,16.19,16.19,0,0,0,5.34-.06c1.36-.32,2.36-.82,3.72-1.08h0a10.6,10.6,0,0,1,1.91-.18c1,0,1,.16,2.1.19C248.77,388.09,251.09,386.49,251.35,386.87Z"/><path class="cls-3" d="M221.45,387a18.39,18.39,0,0,1,6.45-.09,24.44,24.44,0,0,0,3.34.59c2.19.15,3-.29,4.91-.33a13.65,13.65,0,0,1,4.94.84"/><path class="cls-3" d="M243.54,387.64a6.28,6.28,0,0,1,2.38-.73c.81-.07,1.22.08,2.19.06a9.19,9.19,0,0,0,2.29-.34"/><path class="cls-4" d="M234,396.17l-.43.05"/><path class="cls-4" d="M235,398.27a1.35,1.35,0,0,1,.76,0,1.16,1.16,0,0,1,.19.09,1.77,1.77,0,0,0,1.22,0c.77-.17,1.67-.32,2-.37l.5-.08.52-.15.67-.21a3.59,3.59,0,0,0,.8-.43l-.42-.07L241,397a2.5,2.5,0,0,0-.58,0,24.08,24.08,0,0,1-3,.18,8.71,8.71,0,0,0-1.35,0,2.59,2.59,0,0,1-.47,0,2.44,2.44,0,0,1-.38,0c-.2,0-.5-.05-.87-.12"/><path class="cls-3" d="M237.33,396.19c-.34-.49-.69-1-1-1.62-.93-1.68-.65-2.86-1.67-4.12a5,5,0,0,0-.84-.81"/><path class="cls-3" d="M239.3,396a3,3,0,0,1-.32-2.44,2.92,2.92,0,0,1,1.74-1.79"/><path class="cls-3" d="M237.15,398.37a5.19,5.19,0,0,0-1,2,4.94,4.94,0,0,0-.12,1.53,14,14,0,0,1-1.11,5.06c-1.28,3.49-4.72,6-5.68,6.71"/><path class="cls-3" d="M239.7,397.92a35.48,35.48,0,0,0,1.79,4.31,39.09,39.09,0,0,0,2.22,3.85c.9,1.41,1.87,2.8,2.43,3.5a22.79,22.79,0,0,0,8.49,6.14"/><path class="cls-3" d="M238.06,403a13,13,0,0,1-.28,6.19,12.23,12.23,0,0,1-1.16,2.62c-1.49,2.57-3.82,7.06-7.19,13.82"/><path class="cls-2" d="M262,420.34a20.66,20.66,0,0,0-14.48,2c-2.17,1.24-8.3,5.3-7.49,8.31,1.56,5.85,27.38.88,29.26,7.38.9,3.12-3.74,8.81-8.24,11.7-.31.19-.93.58-1.74,1-2.08,1-7.21,3.05-15.55,1.23"/><path class="cls-2" d="M248.61,418.39a62.61,62.61,0,0,1,7.94,36.08"/><path class="cls-2" d="M255,417.54a62.66,62.66,0,0,1,7.93,36.08"/><path class="cls-2" d="M328.25,440.29a14.28,14.28,0,0,1-4.08,3.68c-6.71,4-14.42.75-15.57.26"/><path class="cls-2" d="M319,412.39a18.84,18.84,0,0,0-10.61,5.48c-1.59,1.68-3.58,3.78-3.11,5.48.53,2,4.51,4,20.93,3.28"/><path class="cls-2" d="M313.5,410.64a34.28,34.28,0,0,1,9.83,28.62,33.4,33.4,0,0,1-1.89,7.46"/><path class="cls-2" d="M326.91,428.94A63.57,63.57,0,0,1,328,443.32"/><path class="cls-5" d="M326.32,445.71c-2.44,2.39-8.25,2.36-19.86,2.3-6.45,0-6.33-.55-10.93-.28-6.68.41-9.76,1.67-13.17.07a13.2,13.2,0,0,0-4.8-1.55c-.21,0-.49,0-3.24-.14l-2.77-.09a21,21,0,0,0-5.67-29.91,18.18,18.18,0,0,1,.74-2.41s3-7.83,13.22-13.17l.12-.06a16.61,16.61,0,0,0,4.57-3.5c.67-.75,4.73-5.23,3.94-9.42a5.49,5.49,0,0,0-.27-1c-2.18-5.87-13.37-8.66-13.1-9.3,0-.12.45-.08.88,0a2.39,2.39,0,0,1,.51.13,42.4,42.4,0,0,0,9.65,2,16,16,0,0,0,5.34-.05c1.35-.31,2.36-.81,3.69-1.08h0a10.07,10.07,0,0,1,1.94-.17c1,0,1,.14,2.1.18,3.73.14,6.06-1.45,6.32-1.07.41.6-8.08,4.16-9.25,9.35-1.8,8.07,15.71,13.08,26,31.38C327.29,427,331.46,440.68,326.32,445.71Z"/><path class="cls-3" d="M275.64,377.37a18.39,18.39,0,0,1,6.45-.09,26.08,26.08,0,0,0,3.34.59c2.19.15,3-.3,4.91-.33a13.69,13.69,0,0,1,4.94.84"/><path class="cls-3" d="M297.73,378.06a6.24,6.24,0,0,1,2.37-.73c.82-.07,1.23.08,2.2.06a9.19,9.19,0,0,0,2.29-.34"/><path class="cls-4" d="M287.76,386.64a6.14,6.14,0,0,0,.76-.11.85.85,0,0,1,.5,0c.12.05.14.1.24.14a.9.9,0,0,0,.65-.07c.56-.18.72.13,1.61,0,.31,0,.23-.07.61-.12a4,4,0,0,1,2.16.09c.09.05.35.19.53.09s.06-.08.12-.13.23-.12.67-.05a5.43,5.43,0,0,1,.68.15"/><path class="cls-4" d="M289.17,388.69a1.35,1.35,0,0,1,.76,0,1.16,1.16,0,0,1,.19.09,1.77,1.77,0,0,0,1.22,0c.77-.17,1.66-.32,2.05-.37l.5-.08.51-.15.68-.21a3.59,3.59,0,0,0,.8-.43l-.42-.07-.31-.05a2.5,2.5,0,0,0-.58,0,26.27,26.27,0,0,1-3,.18,7.61,7.61,0,0,0-1.35,0,2.59,2.59,0,0,1-.47,0h-.38c-.21,0-.5-.05-.87-.12"/><path class="cls-3" d="M291.52,386.61a17.4,17.4,0,0,1-1-1.62,21.19,21.19,0,0,1-1.67-4.12h0"/><path class="cls-3" d="M293.49,386.39a5.1,5.1,0,0,0-.33-2.44,4.81,4.81,0,0,0-1.15-1.72"/><path class="cls-3" d="M291.34,388.79a5.19,5.19,0,0,0-1,2,8,8,0,0,0-.12,1.53,5.49,5.49,0,0,1-1.59,2.9,10.28,10.28,0,0,0-2,4.86"/><path class="cls-3" d="M293.89,388.34a33.94,33.94,0,0,0,1.79,4.31,39.09,39.09,0,0,0,2.22,3.85c1.23,1.94,2.26,3.27,2.43,3.5,1.3,1.78,2.35,5.78,1.41,15.46"/><path class="cls-3" d="M293.09,397.22a31,31,0,0,0-6.21,8.65,41.18,41.18,0,0,0-1.62,4.05,45.16,45.16,0,0,0-1.64,6.15"/><path class="cls-5" d="M204,431.58a18.6,18.6,0,0,0,.72,8.95,27.45,27.45,0,0,0,4.84,8.55c2.63,1.58,2.91,2.47,2.81,2.95-.14.68-1.19,1.17-7.34,2.17-3.12.51-4.68.76-6.19.9a110.12,110.12,0,0,1-16.27.07c-5.27-.29-6-.58-9.24-.41-4.6.24-5.51,1-8,1a18.14,18.14,0,0,1-14.5-7.77c-4.57-6.9-1.48-15.46,1.46-23.6,2-5.41,3.65-10.1,8.14-13.51,2-1.53,4.17-2.48,7.81-5.7,3.31-2.93,1.59-2.19,5.21-5.69,1.1-1.07,2.68-2.5,2.51-4.27a3,3,0,0,0-.28-1h0c-2.17-5.85-13.36-8.66-13.09-9.3.06-.12.44-.08.88,0a2.47,2.47,0,0,1,.52.13,42.15,42.15,0,0,0,9.64,2,15.94,15.94,0,0,0,5.34-.05c1.36-.31,2.37-.81,3.71-1.07h0a9.18,9.18,0,0,1,1.93-.18c1,0,1,.14,2.09.18,3.74.14,6.06-1.45,6.32-1.07s-8.44,3.75-9.24,9.35a8.53,8.53,0,0,0,1,4.86c1,2.13,2.43,3.21,5.94,5.76,5.56,4,8.34,6.06,9.17,6.47,3.92,2,5.8,2,9.18,4.5a23.48,23.48,0,0,1,3.47,3.18C211.15,420.07,205.3,424.23,204,431.58Z"/><path class="cls-3" d="M163.15,385.06a18.39,18.39,0,0,1,6.45-.09,24.71,24.71,0,0,0,3.34.6c2.2.14,3-.3,4.92-.34a13.72,13.72,0,0,1,4.94.84"/><path class="cls-3" d="M185.24,385.76a6.15,6.15,0,0,1,2.38-.74c.81-.07,1.22.08,2.19.06a9.21,9.21,0,0,0,2.3-.34"/><path class="cls-4" d="M175.28,394.33a4.7,4.7,0,0,0,.75-.11.85.85,0,0,1,.5,0c.12,0,.15.09.25.13a.9.9,0,0,0,.65-.07c.56-.17.72.13,1.6,0,.32,0,.23-.07.61-.12a3.92,3.92,0,0,1,2.16.1c.09,0,.36.19.53.08s.06-.07.13-.13.22-.11.66-.05a5.53,5.53,0,0,1,.69.15"/><path class="cls-4" d="M176.68,396.39a1.25,1.25,0,0,1,.76,0,1.21,1.21,0,0,1,.2.1,1.9,1.9,0,0,0,1.22,0,20.58,20.58,0,0,1,2-.37l.5-.09.52-.15.67-.21a3.21,3.21,0,0,0,.8-.43l-.42-.07-.31-.05a2.5,2.5,0,0,0-.58,0,23.93,23.93,0,0,1-3,.18,8.71,8.71,0,0,0-1.35,0,2.44,2.44,0,0,1-.46,0,2.54,2.54,0,0,1-.39,0c-.2,0-.5-.05-.87-.12"/><path class="cls-3" d="M179,394.3a5.76,5.76,0,0,1-1-1.62c-.34-.83-.29-1.29-.7-1.8a2.51,2.51,0,0,0-1.46-.82"/><path class="cls-3" d="M181,394.08a15,15,0,0,1,4.6-4.48"/><path class="cls-3" d="M178.86,396.49a4.95,4.95,0,0,0-1.12,3.51c.15,2.29,1.85,7.39,2.18,8.57.53,1.89.65,4.78-1.44,9"/><path class="cls-3" d="M191.84,408.75c-1.19-.26-2.53-.6-4-1.05a15.7,15.7,0,0,1-4.34-1.77,7.79,7.79,0,0,1-2.86-2.91c-1.51-3.06.49-6.54.76-7"/><path class="cls-3" d="M162.6,416.31c-.16.72-.41,1.81-.7,3.14-1,4.7-.94,5.22-1.51,7.12a16.25,16.25,0,0,1-2.6,5.88c-1.83,2.4-3.34,2.52-3.69,4.11-.23,1,0,2.72,2.77,5.34"/><path class="cls-3" d="M179.53,394.08a2.83,2.83,0,0,1,1.42-4.23"/><path class="cls-2" d="M194.34,423.16c-.49-.32-9.7-6.16-18.74-1.55-2.58,1.31-8.17,5-7.49,8.31,1.43,7,29.31,3.85,30.58,10.44.62,3.23-5.48,7.13-9.56,8.63-10.51,3.88-20-3.54-20.68-4.09"/><path class="cls-2" d="M180.4,415.65c-.3,6.23-.43,12.88-.28,19.88.12,6,.42,11.66.85,17.05"/><path class="cls-2" d="M185.5,415.65a113,113,0,0,1,1.95,20.16,114.14,114.14,0,0,1-1.13,16.77"/><line class="cls-5" x1="149.46" y1="449.42" x2="146.83" y2="451.18"/><line class="cls-5" x1="152.83" y1="452.58" x2="145.42" y2="457.03"/><line class="cls-5" x1="157.21" y1="455.8" x2="149.46" y2="460.69"/><line class="cls-5" x1="163.65" y1="458.24" x2="157.21" y2="463.46"/><line class="cls-5" x1="174.62" y1="458.24" x2="168.05" y2="466.1"/><line class="cls-5" x1="184.71" y1="458.24" x2="180.06" y2="466.97"/><line class="cls-5" x1="198.73" y1="458.24" x2="192.75" y2="468.14"/><line class="cls-5" x1="211.62" y1="454.81" x2="204.31" y2="468.14"/><line class="cls-5" x1="221.13" y1="459.52" x2="217.18" y2="466.97"/><line class="cls-5" x1="232.53" y1="458.24" x2="227.27" y2="468.14"/><line class="cls-5" x1="242.19" y1="458.24" x2="236.48" y2="471.22"/><line class="cls-5" x1="253.45" y1="459.52" x2="248.61" y2="468.14"/><line class="cls-5" x1="264.42" y1="457.69" x2="259.06" y2="470.05"/><line class="cls-5" x1="278.16" y1="448.59" x2="270.71" y2="463.24"/><line class="cls-5" x1="286.35" y1="451.33" x2="275.43" y2="476.63"/><line class="cls-5" x1="296.59" y1="449.86" x2="288.26" y2="471.22"/><line class="cls-5" x1="309.17" y1="451.33" x2="303.61" y2="468.14"/><line class="cls-5" x1="318.56" y1="450.59" x2="314.14" y2="463.98"/><line class="cls-5" x1="329.35" y1="448.59" x2="326.16" y2="458.24"/></svg>