<svg id="visual" xmlns="http://www.w3.org/2000/svg" height="100" width="100" viewBox="0 0 2164 382.36"><defs><style>.cls-1{fill:#303234;}.cls-2{fill:#2b2d2f;}.cls-3{fill:#373a3d;}.cls-4{fill:#494c4f;}</style></defs><path class="cls-1" d="M-1264,346l60.11,7.12c60.11,7.12,180.33,21.36,300.56,27.69s240.44,4.74,360.66,3.16,240.45-3.16,360.67,1.58,240.44,15.82,360.67,18.2,240.44-4,360.66-7.91,240.45-5.54,300.56-6.33l60.11-.79V325.4L839.89,327c-60.11,1.59-180.33,4.75-300.56-16.61s-240.44-67.24-360.66-83.06S-61.78,225.73-182,249.46s-240.44,57-360.67,69.61-240.44,4.75-360.66-18.19S-1143.78,240-1203.89,221L-1264,202Z" transform="translate(1264 -202)"/><path class="cls-2" d="M-1264,412.42l60.11.79c60.11.79,180.33,2.37,300.56,8.7s240.44,17.4,360.66,26.1S-302.22,463-182,463.84s240.44-4,360.67-7.91,240.44-7.12,360.66-12.66,240.45-13.45,300.56-17.4l60.11-4V387.1l-60.11.8c-60.11.79-180.33,2.37-300.56,6.32s-240.44,10.29-360.66,7.91S-61.78,388.69-182,383.94s-240.44-3.16-360.67-1.58-240.44,3.16-360.66-3.17-240.45-20.56-300.56-27.68l-60.11-7.12Z" transform="translate(1264 -202)"/><path class="cls-2" d="M-1264,474.12l60.11-1.58c60.11-1.58,180.33-4.75,300.56-7.12s240.44-4,360.66-.79S-302.22,475.7-182,482s240.44,11.07,360.67,7.91,240.44-14.24,360.66-23.73,240.45-17.4,300.56-21.36l60.11-4V420.33l-60.11,3.95c-60.11,4-180.33,11.87-300.56,17.41s-240.44,8.7-360.66,12.65S-61.78,463-182,462.25s-240.44-7.12-360.67-15.82-240.44-19.77-360.66-26.1-240.45-7.91-300.56-8.7l-60.11-.79Z" transform="translate(1264 -202)"/><path class="cls-1" d="M-1264,507.34l60.11,4.75c60.11,4.75,180.33,14.24,300.56,19.78s240.44,7.11,360.66,4.74,240.45-8.7,360.67-11.86,240.44-3.17,360.67-7.12,240.44-11.87,360.66-18.2S779.78,488.36,839.89,486L900,483.61v-44.3l-60.11,4c-60.11,4-180.33,11.86-300.56,21.36s-240.44,20.56-360.66,23.73S-61.78,486.78-182,480.45-422.44,466.21-542.67,463s-240.44-1.58-360.66.8-240.45,5.53-300.56,7.12l-60.11,1.58Z" transform="translate(1264 -202)"/><path class="cls-3" d="M-1264,512.09l60.11,5.54c60.11,5.53,180.33,16.61,300.56,22.15s240.44,5.53,360.66,3.16,240.45-7.12,360.67-4,240.44,14.24,360.67,14.24,240.44-11.07,360.66-19.77,240.45-15,300.56-18.2L900,512.09V482l-60.11,2.37c-60.11,2.38-180.33,7.12-300.56,13.45S298.89,512.09,178.67,516-61.78,520-182,523.16s-240.44,9.5-360.67,11.87-240.44.79-360.66-4.75-240.45-15-300.56-19.77l-60.11-4.75Z" transform="translate(1264 -202)"/><path class="cls-4" d="M-1264,554.81l60.11,4c60.11,4,180.33,11.87,300.56,15s240.44,1.58,360.66-3.16S-302.22,558-182,560.34s240.44,15,360.67,20.57,240.44,4,360.66-1.58,240.45-15,300.56-19.78L900,554.81v-44.3l-60.11,3.16c-60.11,3.17-180.33,9.49-300.56,18.2s-240.44,19.77-360.66,19.77S-61.78,540.57-182,537.4s-240.44,1.58-360.67,4-240.44,2.37-360.66-3.17-240.45-16.61-300.56-22.15l-60.11-5.53Z" transform="translate(1264 -202)"/></svg>