<svg id="visual" xmlns="http://www.w3.org/2000/svg" viewBox="0 0 auto auto"><defs><style>.cls-1{fill:#494c4f;}.cls-2{fill:#373a3d;}.cls-3{fill:#303234;}.cls-4{fill:#2b2d2f;}</style></defs><path class="cls-1" d="M0,151l25,15c25,15,75,45,125,53s100-6,150-24,100-40,150-40,100,22,150,59,100,89,150,79,100-82,125-118l25-36V47L875,73c-25,26-75,78-125,97s-100,5-150-16S500,105,450,92s-100-11-150,9-100,58-150,59S50,125,25,107L0,89Z" transform="translate(0 -47)"/><path class="cls-2" d="M0,187l25,19c25,19,75,57,125,68s100-5,150-22,100-35,150-43,100-6,150,23,100,85,150,76,100-83,125-120l25-37V137l-25,36c-25,36-75,108-125,118s-100-42-150-79-100-59-150-59-100,22-150,40-100,32-150,24S50,179,25,164L0,149Z" transform="translate(0 -47)"/><path class="cls-3" d="M0,211l25,25c25,25,75,75,125,92s100,1,150-12,100-23,150-26,100,1,150,17,100,44,150,33,100-61,125-86l25-25V149l-25,37c-25,37-75,111-125,120s-100-47-150-76-100-31-150-23-100,26-150,43-100,33-150,22S50,223,25,204L0,185Z" transform="translate(0 -47)"/><path class="cls-4" d="M0,265l25,19c25,19,75,57,125,70s100,1,150-14,100-33,150-36,100,9,150,31,100,54,150,43,100-65,125-92l25-27V227l-25,25c-25,25-75,75-125,86s-100-17-150-33-100-20-150-17-100,13-150,26-100,29-150,12S50,259,25,234L0,209Z" transform="translate(0 -47)"/><path class="cls-4" d="M0,271l25,24c25,24,75,72,125,91s100,9,150-5,100-32,150-32,100,18,150,41,100,51,150,40,100-61,125-86l25-25V257l-25,27c-25,27-75,81-125,92s-100-21-150-43-100-34-150-31-100,21-150,36-100,27-150,14S50,301,25,282L0,263Z" transform="translate(0 -47)"/><path class="cls-3" d="M0,307l25,22c25,22,75,66,125,84s100,10,150-1,100-25,150-24,100,17,150,37,100,44,150,36,100-48,125-68l25-20V317l-25,25c-25,25-75,75-125,86s-100-17-150-40-100-41-150-41-100,18-150,32-100,24-150,5S50,317,25,293L0,269Z" transform="translate(0 -47)"/><path class="cls-2" d="M0,355l25,23c25,23,75,69,125,80s100-13,150-23,100-6,150,7,100,35,150,49,100,20,150,11,100-33,125-45l25-12V371l-25,20c-25,20-75,60-125,68s-100-16-150-36-100-36-150-37-100,13-150,24-100,19-150,1S50,349,25,327L0,305Z" transform="translate(0 -47)"/></svg>