<svg id="visual" xmlns="http://www.w3.org/2000/svg" viewBox="0 0 900 375.65"><defs><style>.cls-1{fill:#494c4f;}.cls-2{fill:#373a3d;}.cls-3{fill:#303234;}.cls-4{fill:#2b2d2f;}</style></defs><path class="cls-1" d="M0,109l25-5c25-5,75-15,125-18s100,1,150,5,100,8,150-2S550,55,600,63s100,48,150,49S850,75,875,56l25-19V5l-25,7c-25,7-75,21-125,24s-100-5-150-2S500,51,450,57s-100,4-150,0S200,47,150,44,50,41,25,41H0Z" transform="translate(0 -5)"/><path class="cls-2" d="M0,199l25-5c25-5,75-15,125-19s100-2,150-1,100,1,150-7,100-24,150-22,100,22,150,22,100-20,125-30l25-10V35L875,54c-25,19-75,57-125,56S650,69,600,61,500,77,450,87s-100,6-150,2-100-8-150-5S50,97,25,102L0,107Z" transform="translate(0 -5)"/><path class="cls-3" d="M0,205l25,1c25,1,75,3,125,9s100,16,150,21,100,5,150-9,100-42,150-49,100,7,150,13,100,4,125,3l25-1V125l-25,10c-25,10-75,30-125,30s-100-20-150-22-100,14-150,22-100,8-150,7-100-3-150,1S50,187,25,192L0,197Z" transform="translate(0 -5)"/><path class="cls-4" d="M0,229l25-1c25-1,75-3,125,6s100,29,150,36,100,1,150-15,100-42,150-52,100-4,150-2,100,0,125-1l25-1v-8l-25,1c-25,1-75,3-125-3s-100-20-150-13-100,35-150,49-100,14-150,9-100-15-150-21-100-8-125-9L0,203Z" transform="translate(0 -5)"/><path class="cls-4" d="M0,247l25,3c25,3,75,9,125,20s100,27,150,37,100,14,150-3,100-55,150-73,100-16,150-11,100,13,125,17l25,4V197l-25,1c-25,1-75,3-125,1s-100-8-150,2-100,36-150,52-100,22-150,15-100-27-150-36-100-7-125-6L0,227Z" transform="translate(0 -5)"/><path class="cls-3" d="M0,337l25-3c25-3,75-9,125-9s100,6,150,17,100,27,150,13,100-58,150-72,100,2,150,14,100,20,125,24l25,4V239l-25-4c-25-4-75-12-125-17s-100-7-150,11-100,56-150,73-100,13-150,3-100-26-150-37S50,251,25,248L0,245Z" transform="translate(0 -5)"/><path class="cls-2" d="M0,367l25-4c25-4,75-12,125-14a633.24,633.24,0,0,1,150,12c50,10,100,26,150,17s100-43,150-53,100,4,150,17,100,25,125,31l25,6V323l-25-4c-25-4-75-12-125-24s-100-28-150-14-100,58-150,72-100-2-150-13-100-17-150-17-100,6-125,9L0,335Z" transform="translate(0 -5)"/></svg>