<svg id="visual" xmlns="http://www.w3.org/2000/svg" viewBox="0 0 2334.93 462.68"><defs><style>.cls-1{fill:#919191;}.cls-2{fill:#dbd5c2;}.cls-3{fill:#fff0be;}.cls-4{fill:#ffeaa0;}.cls-5{fill:#ffe581;}.cls-6{fill:#fde05f;}.cls-7{fill:#fbdb37;}</style></defs><path class="cls-1" d="M0,179l179,8.47L358,203l181.61,15.53,179-1.41,179-19.76,179-4.24,181.61-12.7,179,40.93,179-21.17,179,38.1,181.61,1.42,179-26.82,179-35.28V462.68H0Z"/><path class="cls-2" d="M0,207.1l179,42,179,9,181.61-36,179,22.51,179,19.51,179-12,181.61-39,179,52.52,179-42,179-18,181.61,21,179,24,179-6V463.68H0Z"/><path class="cls-3" d="M0,289.63l179-36.87,179,50.15,181.61-50.15,179,25.08,179-26.55,179,41.29,181.61,5.9,179-13.27,179,10.32,179,4.43,181.61-45.72,179,7.37,179,20.65V463.68H0Z"/><path class="cls-4" d="M0,381.22l179-16.49,179,4.34,181.61-7.82,179-3.47,179,22.57,179,4.34,181.61-3.47,179-9.55,179-12.15,179,10.41,181.61,17.36,179,2.61,179-6.08v79.86H0Z"/><path class="cls-5" d="M0,395.27l179,.94L358,385l181.61.93,179,11.25,179-11.25,179-1.87,181.61-2.81,179,5.62,179,5.62,179,5.62,181.61,3.75,179-12.18,179,12.18v61.85H0Z"/><path class="cls-6" d="M0,411l179-1.2,179-12,181.61,12,179-23.93,179,1.2,179,14.36,181.61,8.37,179-21.54,179,13.17h179l181.61,8.37,179-7.18,179,8.38v52.66H0Z"/><path class="cls-7" d="M0,431.57l179-13.76,179,18.35,181.61-6.88,179,6.88,179-5.73,179-5.74,181.61,4.59,179,2.29,179-16.05,179,16.05,181.61,6.88,179-3.44,179,3.44v25.23H0Z"/></svg>