<svg id="visual" xmlns="http://www.w3.org/2000/svg" viewBox="0 0 9012.38 289.96"><defs><style>.cls-1{fill:#919191;}.cls-2{fill:#dbd5c2;}.cls-3{fill:#fff0be;}.cls-4{fill:#ffeaa0;}.cls-5{fill:#ffe581;}.cls-6{fill:#fde05f;}.cls-7{fill:#fbdb37;}</style></defs><path class="cls-1" d="M6534.11,174.63l179,8.47,179,15.52,181.61,15.53,179-1.42,179-19.75,179-4.24L7792.38,176l179,40.93,179-21.17,179,38.1L8511,235.31l179-26.81,179-35.28V458.29H6534.11Z" transform="translate(0 -173.22)"/><path class="cls-2" d="M6534.11,202.72l179,42,179,9,181.61-36,179,22.51,179,19.5,179-12,181.61-39,179,52.51,179-42,179-18,181.61,21,179,24,179-6V459.29H6534.11Z" transform="translate(0 -173.22)"/><path class="cls-3" d="M6534.11,285.25l179-36.87,179,50.15,181.61-50.15,179,25.07,179-26.54,179,41.29,181.61,5.9,179-13.27,179,10.32,179,4.43L8511,249.86l179,7.37,179,20.65V459.29H6534.11Z" transform="translate(0 -173.22)"/><path class="cls-4" d="M6534.11,376.84l179-16.49,179,4.34,181.61-7.82,179-3.47,179,22.57,179,4.34,181.61-3.47,179-9.55,179-12.15,179,10.41L8511,382.91l179,2.61,179-6.08v79.85H6534.11Z" transform="translate(0 -173.22)"/><path class="cls-5" d="M6534.11,390.89l179,.94,179-11.24,181.61.93,179,11.25,179-11.25,179-1.87,181.61-2.81,179,5.62,179,5.62,179,5.62L8511,397.45l179-12.18,179,12.18v61.84H6534.11Z" transform="translate(0 -173.22)"/><path class="cls-6" d="M6677.45,410.52l179-1.2,179-12,181.61,12,179-23.93,179,1.2,179,14.36,181.61,8.37,179-21.54,179,13.17h179l181.61,8.37,179-7.18,179,8.38v52.66H6677.45Z" transform="translate(0 -173.22)"/><path class="cls-7" d="M6534.11,427.19l179-13.76,179,18.35,181.61-6.88,179,6.88,179-5.74,179-5.73,181.61,4.59,179,2.29,179-16.05,179,16.05L8511,434.07l179-3.44,179,3.44v25.22H6534.11Z" transform="translate(0 -173.22)"/><path class="cls-1" d="M0,175.63l250.47,8.47L501,199.62l254.1,15.53,250.48-1.42L1256,194l250.47-4.24L1760.58,177,2011.05,218l250.48-21.17L2512,234.9l254.11,1.41,250.47-26.81,250.47-35.28V459.29H0Z" transform="translate(0 -173.22)"/><path class="cls-2" d="M0,203.72l250.47,42,250.48,9,254.1-36,250.48,22.51L1256,260.73l250.47-12,254.11-39,250.47,52.51,250.48-42,250.47-18,254.11,21,250.47,24,250.47-6V460.29H0Z" transform="translate(0 -173.22)"/><path class="cls-3" d="M0,286.25l250.47-36.87L501,299.53l254.1-50.15,250.48,25.07L1256,247.91l250.47,41.29,254.11,5.9,250.47-13.27,250.48,10.32L2512,296.58l254.11-45.72,250.47,7.37,250.47,20.65V460.29H0Z" transform="translate(0 -173.22)"/><path class="cls-4" d="M0,377.84l250.47-16.49L501,365.69l254.1-7.82,250.48-3.47L1256,377l250.47,4.34,254.11-3.47,250.47-9.55,250.48-12.15L2512,366.55l254.11,17.36,250.47,2.61,250.47-6.08v79.85H0Z" transform="translate(0 -173.22)"/><path class="cls-5" d="M0,391.89l250.47.94L501,381.59l254.1.93,250.48,11.25L1256,382.52l250.47-1.87,254.11-2.81,250.47,5.62,250.48,5.62L2512,394.7l254.11,3.75,250.47-12.18,250.47,12.18v61.84H0Z" transform="translate(0 -173.22)"/><path class="cls-7" d="M0,428.19l250.47-13.76L501,432.78l254.1-6.88,250.48,6.88L1256,427l250.47-5.73,254.11,4.59,250.47,2.29,250.48-16.05L2512,428.19l254.11,6.88,250.47-3.44,250.47,3.44v25.22H0Z" transform="translate(0 -173.22)"/><path class="cls-1" d="M3267.05,175.13l250.48,8.47L3768,199.12l254.11,15.53,250.47-1.42,250.47-19.75,250.48-4.24,254.1-12.7,250.48,40.93,250.47-21.17,250.48,38.1,254.1,1.41L6283.63,209l250.48-35.28V458.79H3267.05Z" transform="translate(0 -173.22)"/><path class="cls-2" d="M3267.05,203.22l250.48,42,250.47,9,254.11-36,250.47,22.51,250.47,19.5,250.48-12,254.1-39,250.48,52.51,250.47-42,250.48-18,254.1,21,250.47,24,250.48-6V459.79H3267.05Z" transform="translate(0 -173.22)"/><path class="cls-3" d="M3267.05,285.75l250.48-36.87L3768,299l254.11-50.15L4272.58,274l250.47-26.54,250.48,41.29,254.1,5.9,250.48-13.27,250.47,10.32,250.48,4.43,254.1-45.72,250.47,7.37,250.48,20.65V459.79H3267.05Z" transform="translate(0 -173.22)"/><path class="cls-4" d="M3267.05,377.34l250.48-16.49L3768,365.19l254.11-7.82,250.47-3.47,250.47,22.57,250.48,4.34,254.1-3.47,250.48-9.55,250.47-12.15,250.48,10.41,254.1,17.36L6283.63,386l250.48-6.08v79.85H3267.05Z" transform="translate(0 -173.22)"/><path class="cls-5" d="M3267.05,391.39l250.48.94L3768,381.09l254.11.93,250.47,11.25L4523.05,382l250.48-1.87,254.1-2.81L5278.11,383l250.47,5.62,250.48,5.62,254.1,3.75,250.47-12.18L6534.11,398v61.84H3267.05Z" transform="translate(0 -173.22)"/><path class="cls-7" d="M3267.05,427.69l250.48-13.76L3768,432.28l254.11-6.88,250.47,6.88,250.47-5.74,250.48-5.73,254.1,4.59,250.48,2.29,250.47-16.05,250.48,16.05,254.1,6.88,250.47-3.44,250.48,3.44v25.22H3267.05Z" transform="translate(0 -173.22)"/></svg>