<svg id="Layer_1" data-name="Layer 1" xmlns="http://www.w3.org/2000/svg" viewBox="0 0 401.93 488.2"><defs><style>.cls-1,.cls-2,.cls-3,.cls-5,.cls-6{fill:none;stroke-miterlimit:10;}.cls-1,.cls-2,.cls-3,.cls-4,.cls-5{stroke:#fbfbfb;}.cls-1{stroke-width:3px;}.cls-3{stroke-width:0.25px;}.cls-4,.cls-7{fill:#f9ed32;opacity:0.12;}.cls-4{stroke-miterlimit:10;stroke-width:3px;}.cls-5{stroke-width:0.75px;}.cls-6{stroke:#231f20;}.cls-7{isolation:isolate;}</style></defs><path class="cls-1" d="M386.94,83.38c1.1,4.62-13.39,10.75-19,13.12-24.73,10.46-69.84,18-98.09,22.13-5.31,15.14-16.9,32.4-34.19,36.26l-.25.05c-3.12-3.75-19.73-5.54-40.43-4.36a1.22,1.22,0,0,0-.27,0c-1.42,0-2.92.08-4.47.18-1.88.13-3.66.33-5.34.57a.54.54,0,0,0-.18,0c-24,2.38-42.69,7.8-42.9,12.53-21.89-.81-37.68-18.34-47.35-31.88-28.94.23-54.08-.82-73.49-3h0a124.09,124.09,0,0,1-15.39-6.44c-2.55-1.28-3.83-1.93-4-2.26C-1.06,114,50.07,85,112,72.93c19.5-3.8,38.34-5.42,76-8.67,14.29-1.23,31.56-2.72,54.21-3.66,0,0,89.45-3.68,140.72,19.69C384.23,80.87,386.55,81.73,386.94,83.38Z" transform="translate(0.01 0)"/><path class="cls-1" d="M242.17,59.56c0,.32.06.68.09,1.06-17.36.82-35.53,2-54.21,3.65-26.87,2.32-52.5,5.28-76,8.68C106.77,47.51,134.31,5.62,165.8,1.8,198.37-2.16,239.71,34.05,242.17,59.56Z" transform="translate(0.01 0)"/><path class="cls-1" d="M182.22,111.2" transform="translate(0.01 0)"/><path class="cls-2" d="M217.05,157.86c.31,2.57-12,5.74-27.6,7.09s-28.39.35-28.7-2.22c-.05-.42.23-.85.82-1.29,3-2.27,13.75-4.68,26.77-5.81s24.15-.6,27.6,1.11C216.63,157.07,217,157.44,217.05,157.86Z" transform="translate(0.01 0)"/><path class="cls-1" d="M235.41,154.94c-3.12-3.75-19.73-5.54-40.43-4.36a1.22,1.22,0,0,0-.27,0c-2.27.12-4.57.28-6.92.49l-2.89.26a.54.54,0,0,0-.18,0c-24,2.38-42.69,7.8-42.9,12.53a.76.76,0,0,0,0,.3c.59,5,22.14,7.25,48.14,5S236.55,161,236,156A2,2,0,0,0,235.41,154.94Zm-46,10c-15.55,1.34-28.39.35-28.7-2.22-.05-.42.23-.85.82-1.29,3-2.27,13.75-4.68,26.77-5.81s24.15-.6,27.6,1.11c.69.33,1.06.7,1.11,1.12.35,2.59-12,5.75-27.51,7.1Z" transform="translate(0.01 0)"/><path class="cls-1" d="M99.27,138.36a8.21,8.21,0,0,1-.48-5.24c1.1-4.1,6.54-9.37,47.44-16.66,10.25-1.83,18.17-3.24,30.12-4.58,26.5-3,43.59-2.29,49.54-2,33,1.69,38,8.33,39.36,10.76a11.2,11.2,0,0,1,1.42,5.63" transform="translate(0.01 0)"/><path class="cls-2" d="M217.05,157.86c.31,2.57-12,5.74-27.6,7.09s-28.39.35-28.7-2.22c-.05-.42.23-.85.82-1.29,3-2.27,13.75-4.68,26.77-5.81s24.15-.6,27.6,1.11C216.63,157.07,217,157.44,217.05,157.86Z" transform="translate(0.01 0)"/><path class="cls-3" d="M160.58,161.44a214.17,214.17,0,0,0,28.32-.58,211.78,211.78,0,0,0,28-4.29" transform="translate(0.01 0)"/><line class="cls-2" x1="169.66" y1="161.61" x2="167.64" y2="164.71"/><line class="cls-2" x1="188.91" y1="160.81" x2="189.46" y2="164.95"/><line class="cls-2" x1="207.17" y1="158.45" x2="209.3" y2="161.45"/><line class="cls-2" x1="179.06" y1="161.43" x2="178.24" y2="165.28"/><line class="cls-2" x1="198.82" y1="159.72" x2="200.43" y2="163.36"/><path class="cls-1" d="M18.56,105.77c84.78-33.06,179.81-38.15,271.38-41.33a288.9,288.9,0,0,1,93.41,15.85" transform="translate(0.01 0)"/><path class="cls-1" d="M21.32,129.44c-3.64-3.86-.55-8.82,2.72-12.24,15.27-10.76,33.29-13.88,51.13-18.56,50.23-10.61,99-18,150.35-19.27,44-.68,89.75-3.06,131.83,10.53,3.82,1.23,6,4.18,2.9,9.49" transform="translate(0.01 0)"/><path class="cls-1" d="M174.91,83.53a48.76,48.76,0,0,1,5.74,13,45.15,45.15,0,0,1,1.57,14.72" transform="translate(0.01 0)"/><path class="cls-1" d="M353.39,88.07a153.68,153.68,0,0,1-35,19.27,167.72,167.72,0,0,1-26.4,7.92" transform="translate(0.01 0)"/><path class="cls-1" d="M22.44,119.44a142,142,0,0,0,27.23,9.08A148.15,148.15,0,0,0,76,132" transform="translate(0.01 0)"/><path class="cls-1" d="M93.77,95.32a24.7,24.7,0,0,0,.86,7c3,11.15,13.14,17.62,17.12,19.89" transform="translate(0.01 0)"/><path class="cls-1" d="M264.5,80.55c.25,3.22.78,15.87-9.75,25.39a34.56,34.56,0,0,1-9.32,6" transform="translate(0.01 0)"/><ellipse class="cls-4" cx="67.9" cy="114.26" rx="10.35" ry="7.29" transform="translate(-6.09 3.85) rotate(-3.11)"/><ellipse class="cls-4" cx="223.9" cy="93.45" rx="10.35" ry="7.29" transform="translate(-4.73 12.28) rotate(-3.11)"/><ellipse class="cls-4" cx="140.21" cy="100.69" rx="10.35" ry="7.29" transform="translate(-5.25 7.75) rotate(-3.11)"/><ellipse class="cls-4" cx="299.86" cy="94.21" rx="10.35" ry="7.29" transform="translate(-4.66 16.41) rotate(-3.11)"/><ellipse class="cls-1" cx="371.19" cy="93.1" rx="2.62" ry="2.23"/><ellipse class="cls-1" cx="362.73" cy="80.83" rx="2.62" ry="2.23"/><ellipse class="cls-1" cx="194.1" cy="74.19" rx="2.62" ry="2.23"/><ellipse class="cls-1" cx="221.44" cy="72.63" rx="2.62" ry="2.23"/><ellipse class="cls-1" cx="253.64" cy="71.28" rx="2.62" ry="2.23"/><ellipse class="cls-1" cx="281.64" cy="71.1" rx="2.62" ry="2.23"/><ellipse class="cls-1" cx="311.57" cy="72.54" rx="2.62" ry="2.23"/><ellipse class="cls-1" cx="340.34" cy="76.78" rx="2.62" ry="2.23"/><ellipse class="cls-1" cx="18.15" cy="112.88" rx="2.62" ry="2.23"/><ellipse class="cls-1" cx="13.58" cy="123.59" rx="2.62" ry="2.23"/><ellipse class="cls-1" cx="38.52" cy="103.3" rx="2.62" ry="2.23"/><ellipse class="cls-1" cx="68.25" cy="94.99" rx="2.62" ry="2.23"/><ellipse class="cls-1" cx="99.61" cy="87.8" rx="2.62" ry="2.23"/><ellipse class="cls-1" cx="129.94" cy="82.37" rx="2.62" ry="2.23"/><ellipse class="cls-1" cx="164.74" cy="77.55" rx="2.62" ry="2.23"/><line class="cls-1" x1="196.92" y1="57.65" x2="231.87" y2="54.63"/><line class="cls-2" x1="198.5" y1="55.7" x2="229.45" y2="53.02"/><line class="cls-2" x1="200.66" y1="53.53" x2="228.76" y2="51.1"/><line class="cls-2" x1="203.02" y1="51.59" x2="220.01" y2="50.12"/><line class="cls-2" x1="204.67" y1="49.87" x2="216.15" y2="48.87"/><line class="cls-2" x1="208.18" y1="48.14" x2="209.56" y2="48.02"/><line class="cls-2" x1="191.48" y1="116.56" x2="236.63" y2="112.65"/><line class="cls-2" x1="193.82" y1="118.59" x2="234" y2="115.11"/><line class="cls-2" x1="196.44" y1="120.06" x2="230.83" y2="117.08"/><line class="cls-2" x1="199.74" y1="121.47" x2="222.81" y2="119.47"/><line class="cls-2" x1="206.14" y1="122.61" x2="214.13" y2="121.92"/><line class="cls-2" x1="209.41" y1="123.65" x2="211.96" y2="123.43"/><line class="cls-2" x1="191.26" y1="114.7" x2="213.42" y2="112.78"/><path class="cls-2" d="M224.19,279.21c-1.88,3.14-4.57,5.68-7.26,6.68-3.51,1.3-4.87-.54-13.75-.22-7.48.26-8.23,1.62-11.31.74a15.81,15.81,0,0,1-7.5-5.24c-2.75-3.32-4.37-7.59-3.58-11.25.65-3,3-5.74,5.5-8a45.5,45.5,0,0,1,8.48-5.81,10.71,10.71,0,0,0,2.93-2.25c.43-.48,3-3.36,2.54-6a3.38,3.38,0,0,0-.18-.62h.2a.62.62,0,0,1,.33,0c.07,0,.09.07.15.09a.51.51,0,0,0,.42,0c.36-.11.46.08,1,0,.2,0,.15-.05.4-.08a4.25,4.25,0,0,1,.87-.06,1.14,1.14,0,0,1,.51.13c.06,0,.23.11.34.05s.05-.05.08-.09.15-.07.44,0l.43.1c-.73,4,6.88,6.82,13.22,11.24,3.78,2.64,7.12,5.84,8,10.16A15.45,15.45,0,0,1,224.19,279.21Z" transform="translate(0.01 0)"/><path class="cls-2" d="M211.2,241.19c.31.46-5.36,2.83-5.94,6l-.43-.1h-.44c-.06,0,0,.06-.08.09a.49.49,0,0,1-.34-.05,1.14,1.14,0,0,0-.51-.13,4.25,4.25,0,0,0-.87.06c-.25,0-.2.06-.4.08-.57,0-.67-.14-1,0a.51.51,0,0,1-.42,0c-.06,0-.08-.06-.15-.09a.62.62,0,0,0-.33,0h-.2c-1.4-3.77-8.59-5.57-8.42-6,0-.07.29-.05.57,0l.32.07a26.37,26.37,0,0,0,6.2,1.32,10.45,10.45,0,0,0,3.44,0c.87-.21,1.52-.53,2.39-.7h0a6.23,6.23,0,0,1,1.22-.12c.66,0,.65.1,1.35.13C209.5,242,211,241,211.2,241.19Z" transform="translate(0.01 0)"/><path class="cls-2" d="M188,236.92" transform="translate(0.01 0)"/><path class="cls-2" d="M192,241.24a11.76,11.76,0,0,1,4.14-.06,17.63,17.63,0,0,0,2.15.39,27.8,27.8,0,0,0,3.16-.22,8.56,8.56,0,0,1,3.17.54" transform="translate(0.01 0)"/><path class="cls-2" d="M206.18,241.69a3.9,3.9,0,0,1,1.53-.47c.52-.05.79.05,1.41,0a5.7,5.7,0,0,0,1.48-.22" transform="translate(0.01 0)"/><path class="cls-2" d="M200.06,247.17h-.28" transform="translate(0.01 0)"/><path class="cls-2" d="M200.68,248.52a.82.82,0,0,1,.49,0l.13.06a1.16,1.16,0,0,0,.78,0c.49-.11,1.07-.2,1.31-.23l.33-.06.33-.09.43-.14a2.49,2.49,0,0,0,.51-.27h-.84a15.67,15.67,0,0,1-1.94.12,6.32,6.32,0,0,0-.87,0h-.55l-.56-.07" transform="translate(0.01 0)"/><path class="cls-2" d="M217.58,253.06" transform="translate(0.01 0)"/><path class="cls-2" d="M221.3,254.79" transform="translate(0.01 0)"/><path class="cls-2" d="M202.19,247.18c-.22-.32-.44-.66-.65-1-.6-1.08-.42-1.84-1.08-2.65a3,3,0,0,0-.54-.52" transform="translate(0.01 0)"/><path class="cls-2" d="M203.5,247a1.85,1.85,0,0,1-.21-1.57,1.88,1.88,0,0,1,1.12-1.15" transform="translate(0.01 0)"/><path class="cls-2" d="M202.08,248.58a3.62,3.62,0,0,0-.64,1.27,3.72,3.72,0,0,0-.08,1,8.87,8.87,0,0,1-.71,3.25,10.2,10.2,0,0,1-3.65,4.34" transform="translate(0.01 0)"/><path class="cls-2" d="M203.72,248.29a21.56,21.56,0,0,0,1.15,2.77,26.46,26.46,0,0,0,1.42,2.48c.58.9,1.21,1.79,1.56,2.25a14.64,14.64,0,0,0,5.46,3.94" transform="translate(0.01 0)"/><path class="cls-2" d="M202.66,251.57a8.46,8.46,0,0,1-.18,4,7.87,7.87,0,0,1-.74,1.68c-1,1.65-2.46,4.54-4.62,8.88" transform="translate(0.01 0)"/><path class="cls-2" d="M218,262.7a13.26,13.26,0,0,0-9.3,1.31c-1.39.8-5.33,3.41-4.81,5.34,1,3.76,17.59.57,18.8,4.75.58,2-2.4,5.66-5.29,7.51a11.11,11.11,0,0,1-1.12.63c-1.34.67-4.64,2-10,.8" transform="translate(0.01 0)"/><path class="cls-2" d="M209.44,261.44a40.14,40.14,0,0,1,5.06,23.2" transform="translate(0.01 0)"/><path class="cls-2" d="M213.5,260.9a40.12,40.12,0,0,1,5.1,23.19" transform="translate(0.01 0)"/><path class="cls-2" d="M260.63,275.52a9.3,9.3,0,0,1-2.63,2.37c-4.31,2.55-9.26.48-10,.16" transform="translate(0.01 0)"/><path class="cls-2" d="M254.65,257.59a12.11,12.11,0,0,0-6.82,3.52c-1,1.08-2.3,2.43-2,3.53.34,1.27,2.9,2.54,13.45,2.11" transform="translate(0.01 0)"/><path class="cls-2" d="M251.15,256.44a22,22,0,0,1,6.3,18.39,21.3,21.3,0,0,1-1.21,4.79" transform="translate(0.01 0)"/><path class="cls-2" d="M259.76,268.23a41.22,41.22,0,0,1,.74,9.21" transform="translate(0.01 0)"/><path class="cls-2" d="M259.38,279c-1.57,1.54-5.3,1.52-12.76,1.48-4.14,0-4.07-.35-7-.17-4.29.26-6.27,1.06-8.46,0a8.39,8.39,0,0,0-3.08-1l-2.08-.09-1.78-.05a13.47,13.47,0,0,0-3.15-18.8c-.18-.14-.38-.27-.57-.39a12.07,12.07,0,0,1,.48-1.55s2-5,8.49-8.46h.08a10.42,10.42,0,0,0,2.94-2.25c.42-.48,3-3.36,2.53-6.05a3.38,3.38,0,0,0-.18-.62c-1.4-3.77-8.59-5.57-8.41-6,0-.07.28-.05.56,0l.33.08a26.86,26.86,0,0,0,6.2,1.31,10.39,10.39,0,0,0,3.43,0c.87-.2,1.52-.52,2.38-.7h0a7.45,7.45,0,0,1,1.25-.11c.67,0,.65.1,1.35.12,2.4.09,3.89-.93,4.06-.69s-5.19,2.68-5.94,6c-1.16,5.19,10.09,8.41,16.69,20.17C260,267,262.69,275.77,259.38,279Z" transform="translate(0.01 0)"/><path class="cls-5" d="M222.78,230.77" transform="translate(0.01 0)"/><path class="cls-2" d="M226.81,235.08a12.05,12.05,0,0,1,4.15,0,17.6,17.6,0,0,0,2.15.38,25.52,25.52,0,0,0,3.15-.22,8.87,8.87,0,0,1,3.18.55" transform="translate(0.01 0)"/><path class="cls-2" d="M241,235.53a3.9,3.9,0,0,1,1.53-.47,13.22,13.22,0,0,1,1.41,0,6.08,6.08,0,0,0,1.47-.22" transform="translate(0.01 0)"/><path class="cls-2" d="M234.61,241a2.65,2.65,0,0,0,.48-.07.58.58,0,0,1,.32,0c.08,0,.1.07.16.09a.51.51,0,0,0,.42,0c.36-.12.46.08,1,0a.85.85,0,0,0,.39-.07,2.36,2.36,0,0,1,1.39.06c.06,0,.23.12.34,0s0,0,.08-.08.14-.08.43,0a3.12,3.12,0,0,1,.44.09" transform="translate(0.01 0)"/><path class="cls-2" d="M235.5,242.36a.82.82,0,0,1,.49,0l.12.07a1.33,1.33,0,0,0,.79,0c.43-.1.87-.18,1.31-.24l.32-.06.33-.09.44-.14a2.49,2.49,0,0,0,.51-.27l-.27,0h-.2a1.15,1.15,0,0,0-.37,0,15.93,15.93,0,0,1-1.95.11,6.32,6.32,0,0,0-.87,0h-.54l-.56-.07" transform="translate(0.01 0)"/><path class="cls-2" d="M252.41,246.9" transform="translate(0.01 0)"/><path class="cls-2" d="M256.12,248.63" transform="translate(0.01 0)"/><path class="cls-2" d="M237,241c-.23-.32-.45-.66-.65-1a13.81,13.81,0,0,1-1.08-2.64h0" transform="translate(0.01 0)"/><path class="cls-2" d="M238.29,240.88a3.2,3.2,0,0,0-.95-2.67" transform="translate(0.01 0)"/><path class="cls-2" d="M236.91,242.44a3.06,3.06,0,0,0-.64,1.27,4.77,4.77,0,0,0-.08,1,3.44,3.44,0,0,1-1,1.86,6.65,6.65,0,0,0-1.31,3.13" transform="translate(0.01 0)"/><path class="cls-2" d="M238.5,242.13a23.23,23.23,0,0,0,1.15,2.78,26.4,26.4,0,0,0,1.43,2.47c.79,1.24,1.45,2.1,1.56,2.25.84,1.14,1.51,3.71.91,9.93" transform="translate(0.01 0)"/><path class="cls-2" d="M238,247.84a19.79,19.79,0,0,0-4,5.56,27.31,27.31,0,0,0-1,2.6A29.88,29.88,0,0,0,232,260" transform="translate(0.01 0)"/><path class="cls-2" d="M180.79,269.92a12.06,12.06,0,0,0,.46,5.75,17.64,17.64,0,0,0,3.12,5.5c1.68,1,1.87,1.59,1.8,1.9s-.77.75-4.72,1.39c-2,.33-3,.49-4,.58A70.23,70.23,0,0,1,167,285a49.11,49.11,0,0,0-5.94-.27c-3,.15-3.54.63-5.14.66a11.66,11.66,0,0,1-9.32-5c-2.93-4.43-1-9.93.94-15.16,1.25-3.48,2.34-6.5,5.23-8.69a46.1,46.1,0,0,0,5-3.66c2.13-1.88,1-1.41,3.35-3.66.71-.68,1.72-1.61,1.61-2.74a1.92,1.92,0,0,0-.18-.62h0c-1.39-3.76-8.58-5.56-8.4-6,0-.08.27-.06.56,0a2,2,0,0,1,.33.09,28,28,0,0,0,6.2,1.31,10.39,10.39,0,0,0,3.43,0c.87-.2,1.53-.52,2.38-.69h0a6.43,6.43,0,0,1,1.24-.11c.66,0,.65.09,1.34.11,2.4.1,3.9-.93,4.07-.68s-5.43,2.41-6,6a5.41,5.41,0,0,0,.66,3.13c.65,1.37,1.56,2.06,3.81,3.7,3.58,2.59,5.37,3.89,5.9,4.16,2.51,1.26,3.72,1.27,5.89,2.89a15.18,15.18,0,0,1,2.24,2A12.78,12.78,0,0,0,180.79,269.92Z" transform="translate(0.01 0)"/><path class="cls-2" d="M256.78,261.21" transform="translate(0.01 0)"/><path class="cls-2" d="M154.5,240a11.76,11.76,0,0,1,4.14-.06,15.87,15.87,0,0,0,2.15.38,23.86,23.86,0,0,0,3.16-.22,9.1,9.1,0,0,1,3.18.55" transform="translate(0.01 0)"/><path class="cls-2" d="M168.72,240.44a3.91,3.91,0,0,1,1.52-.47,13.23,13.23,0,0,0,1.41,0,5.7,5.7,0,0,0,1.48-.22" transform="translate(0.01 0)"/><path class="cls-2" d="M162.31,246a2.64,2.64,0,0,0,.49-.08.58.58,0,0,1,.32,0c.08,0,.09.06.16.09a.58.58,0,0,0,.41-.05c.36-.11.47.08,1,0a.87.87,0,0,0,.39-.07,2.53,2.53,0,0,1,1.39.06c.06,0,.22.12.34.05s0,0,.08-.08.14-.07.43,0a2.07,2.07,0,0,1,.43.1" transform="translate(0.01 0)"/><path class="cls-2" d="M163.21,247.31a.82.82,0,0,1,.49,0l.13.06a1.16,1.16,0,0,0,.78,0c.5-.11,1.07-.21,1.32-.24l.32,0,.33-.1.44-.13a2.53,2.53,0,0,0,.51-.28h-.47a1.15,1.15,0,0,0-.37,0,15.93,15.93,0,0,1-1.95.11,6.32,6.32,0,0,0-.87,0h-.55l-.55-.08" transform="translate(0.01 0)"/><path class="cls-2" d="M180.11,251.84" transform="translate(0.01 0)"/><path class="cls-2" d="M183.83,253.57" transform="translate(0.01 0)"/><path class="cls-2" d="M164.73,246a3.7,3.7,0,0,1-.66-1c-.21-.53-.18-.83-.44-1.15a1.68,1.68,0,0,0-.94-.53" transform="translate(0.01 0)"/><path class="cls-2" d="M166,245.82a9.47,9.47,0,0,1,1.48-1.74,9,9,0,0,1,1.47-1.13" transform="translate(0.01 0)"/><path class="cls-2" d="M164.61,247.37a3.37,3.37,0,0,0-.63,1.27,3.06,3.06,0,0,0-.08,1,36.17,36.17,0,0,0,1.4,5.51c.34,1.21.41,3.07-.93,5.76" transform="translate(0.01 0)"/><path class="cls-2" d="M173,255.25a24.9,24.9,0,0,1-2.57-.68,9.8,9.8,0,0,1-2.79-1.13,5,5,0,0,1-1.84-1.87c-1-2,.32-4.21.49-4.49" transform="translate(0.01 0)"/><path class="cls-2" d="M154.17,260.11c-.11.46-.27,1.16-.45,2-.65,3-.61,3.35-1,4.57a10.75,10.75,0,0,1-1.67,3.79c-1.18,1.53-2.15,1.61-2.38,2.63-.14.67,0,1.76,1.78,3.44" transform="translate(0.01 0)"/><path class="cls-2" d="M165.05,245.82a1.83,1.83,0,0,1-.21-1.56A1.92,1.92,0,0,1,166,243.1" transform="translate(0.01 0)"/><path class="cls-2" d="M174.56,264.51c-.31-.2-6.23-4-12-1-1.66.85-5.25,3.23-4.82,5.35.92,4.49,18.84,2.47,19.66,6.71.4,2.07-3.52,4.58-6.15,5.55-6.75,2.48-12.85-2.28-13.29-2.63" transform="translate(0.01 0)"/><path class="cls-2" d="M165.61,259.68c-.2,4-.28,8.28-.19,12.78.08,3.84.27,7.5.55,11" transform="translate(0.01 0)"/><path class="cls-2" d="M168.88,259.69a72.12,72.12,0,0,1,1.26,12.95,74.71,74.71,0,0,1-.73,10.78" transform="translate(0.01 0)"/><path class="cls-6" d="M226.68,298.87" transform="translate(0.01 0)"/><path class="cls-6" d="M233.7,282.61" transform="translate(0.01 0)"/><polyline class="cls-7" points="215.68 157.92 401.93 488.2 85.65 488.2 159.38 162.79"/></svg>